<svg width="24" height="25" viewBox="0 0 24 25" fill="none" xmlns="http://www.w3.org/2000/svg">
<g clip-path="url(#clip0_1_6759)">
<path d="M0.42453 9.45805C-0.636046 13.6265 0.292679 17.3038 3.18683 20.3896C3.26213 20.4693 3.33897 20.549 3.41571 20.6259C4.9704 22.1805 6.90684 23.1403 8.44115 23.8083C9.09971 24.0959 12.4788 24.4452 13.393 24.309C18.8263 23.4976 22.4019 20.4332 23.6472 15.3063C23.885 14.302 24.0034 13.2732 23.9999 12.2411C24.0058 9.80998 22.9822 6.98355 20.8712 4.8667C20.6538 4.687 20.4372 4.50084 20.2278 4.32043C19.7736 3.92999 19.3042 3.52571 18.813 3.18096C15.0611 0.540272 11.1629 0.525522 7.22699 1.92583C3.66342 3.19233 1.37497 5.72718 0.42453 9.45805ZM7.24226 3.17358C10.6956 1.73844 14.1606 1.48518 17.5402 3.63461C18.158 4.02802 19.8055 5.35949 20.0648 5.55947L20.0815 5.57175L20.0952 5.58704C21.4137 6.98519 22.9235 9.54166 22.8902 12.1696C22.8791 13.2934 22.727 14.4113 22.4373 15.4971C21.5789 18.6172 19.5266 20.8912 16.163 22.4465C12.7436 24.0838 7.83986 22.4286 6.53514 21.5673C5.09307 20.5813 3.83123 19.3548 2.80479 17.9412C1.19507 15.6622 0.833922 12.3862 1.69892 9.39147C2.10369 8.00869 2.81113 6.73331 3.76992 5.65785C4.72871 4.58239 5.91483 3.73378 7.24226 3.17358Z" fill="#4f3b31"/>
<path d="M17.1226 10.6029C16.8181 10.2506 16.515 9.89708 16.2134 9.54219C15.8851 9.15779 15.556 8.77419 15.226 8.39137C15.0999 8.23736 14.9519 8.10258 14.7868 7.99129C14.688 7.92931 14.4745 7.92131 14.3916 7.99804C14.3461 8.05259 14.3155 8.11796 14.3026 8.18781C14.2898 8.25767 14.2953 8.32965 14.3184 8.39679C14.4077 8.56049 14.5136 8.71457 14.6344 8.8566C14.6612 8.8903 14.688 8.92399 14.7142 8.9578C15.0919 9.44485 15.47 9.93165 15.8485 10.4182C16.2948 10.9923 16.7408 11.5666 17.1864 12.1412C17.223 12.1921 17.2552 12.246 17.2827 12.3023C17.2894 12.315 17.2965 12.3281 17.3032 12.3419C17.0585 12.3298 16.818 12.3175 16.5804 12.3053C15.9944 12.2754 15.4408 12.2471 14.8797 12.2256C13.6859 12.18 11.942 12.1357 10.2554 12.0924C8.80633 12.0557 7.43747 12.0207 6.43211 11.9862C6.23493 11.981 6.03772 11.995 5.84323 12.0279C5.54612 12.0751 5.39541 12.228 5.39561 12.4824C5.39561 12.7664 5.56394 12.9385 5.86914 12.9667C5.95329 12.9745 6.03748 12.9826 6.12169 12.991C6.46787 13.025 6.82594 13.06 7.1795 13.0646C8.59005 13.0829 10.5867 13.0973 12.5172 13.111C14.013 13.1212 15.4257 13.1315 16.5082 13.1432C16.587 13.1462 16.6655 13.1541 16.7433 13.1669L16.7963 13.1744C16.7726 13.1999 16.7504 13.2242 16.7291 13.2473C16.6521 13.331 16.5881 13.4003 16.5215 13.4669C15.5861 14.4196 14.8042 15.5118 14.2038 16.7044L14.1847 16.7408C14.1253 16.8441 14.0784 16.9542 14.0452 17.0687C14.034 17.1366 14.0387 17.2061 14.0588 17.2719C14.0647 17.2984 14.0706 17.3248 14.0742 17.3507L14.0815 17.4046L14.1348 17.3944C14.166 17.3889 14.1975 17.3851 14.2291 17.3829C14.3096 17.3848 14.3887 17.3614 14.4553 17.3162C14.5292 17.2465 14.5957 17.1692 14.6534 17.0856C14.6982 17.0226 14.747 16.9626 14.7996 16.906C15.2266 16.4693 15.6547 16.0334 16.0836 15.5984C16.6432 15.0297 17.2017 14.46 17.7591 13.8895C18.0062 13.6521 18.2288 13.3906 18.4238 13.1088C18.7021 12.6768 18.6595 12.3174 18.2825 11.9071C17.9226 11.5157 17.543 11.0889 17.1226 10.6029Z" fill="#4f3b31"/>
</g>
<defs>
<clipPath id="clip0_1_6759">
<rect width="24" height="24" fill="white" transform="translate(0 0.660645)"/>
</clipPath>
</defs>
</svg>
