<svg width="24" height="24" viewBox="0 0 24 24" fill="none" xmlns="http://www.w3.org/2000/svg">
<g id="chevron-up">
<path id="icon" d="M11.6447 8.60964C10.6857 9.72854 9.69767 10.7793 8.82851 11.9205C7.65797 13.4574 6.57483 15.0612 5.46322 16.6427C5.15716 17.078 4.72574 17.2383 4.3522 17.0132C3.96829 16.782 3.87652 16.2816 4.1852 15.8692C5.69554 13.8516 7.19778 11.8264 8.74391 9.83592C9.41747 8.96893 10.1916 8.1806 10.9157 7.35225C11.4629 6.72531 11.9951 6.72896 12.523 7.36718C14.324 9.54458 16.1267 11.7206 17.931 13.8951C18.5262 14.6087 19.1645 15.2858 19.7606 15.9989C19.9055 16.1657 19.9898 16.3765 20 16.5971C19.9886 16.9219 19.6064 17.0476 19.2994 16.8241C18.9928 16.6005 18.7091 16.3471 18.4523 16.0677C16.323 13.7482 14.199 11.424 12.0803 9.09489C11.9538 8.9564 11.8296 8.81618 11.6447 8.60964Z" fill="#475569"/>
</g>
</svg>
