<svg width="24" height="25" viewBox="0 0 24 25" fill="#fff"  xmlns="http://www.w3.org/2000/svg">
<path d="M15.5444 12.414C14.5775 11.6489 13.7171 10.963 12.8515 10.2829C11.4338 9.16907 9.99495 8.08108 8.60258 6.93696C8.02207 6.45932 7.53361 5.86963 7.01229 5.32232C6.7885 5.08735 6.59289 4.78479 6.85839 4.50158C7.15301 4.18704 7.47453 4.38509 7.72046 4.62974C10.366 7.26188 13.6411 9.06888 16.5476 11.3593C17.4041 12.0343 17.5157 12.6026 16.7905 13.4377C16.566 13.7054 16.3223 13.9564 16.0613 14.1886C14.1642 15.8174 12.2794 17.4621 10.3448 19.0456C9.72364 19.554 8.97012 19.904 8.26193 20.2996C8.14124 20.367 7.82332 20.3396 7.80445 20.2848C7.73455 20.0828 7.65791 19.7874 7.75519 19.6412C8.13753 19.0656 8.51871 18.4609 9.02198 17.9996C10.2366 16.8863 11.522 15.8505 12.774 14.7777C13.5103 14.1468 14.2359 13.5033 14.9692 12.8686C15.1296 12.7298 15.3022 12.6046 15.5444 12.414Z" />
</svg>
