<svg width="24" height="25" viewBox="0 0 24 25" fill="none" xmlns="http://www.w3.org/2000/svg">
<g id="chevron-down">
<path id="icon" d="M11.9255 16.2051C12.6906 15.2382 13.3765 14.3777 14.0566 13.5121C15.1703 12.0945 16.2584 10.6556 17.4025 9.26327C17.8796 8.68277 18.4699 8.19428 19.0172 7.67296C19.2521 7.44905 19.5546 7.25357 19.8378 7.51906C20.1523 7.81368 19.9543 8.13523 19.7096 8.38116C17.0768 11.0267 15.2704 14.3017 12.9801 17.2083C12.3051 18.0647 11.7367 18.1763 10.9016 17.4511C10.6339 17.2267 10.383 16.9829 10.1508 16.7219C8.52185 14.8247 6.87725 12.94 5.29382 11.0054C4.78543 10.3842 4.43536 9.6307 4.03974 8.92263C3.97241 8.80194 3.99966 8.4839 4.05464 8.46503C4.25653 8.39513 4.55184 8.31858 4.69817 8.41574C5.27366 8.7982 5.87852 9.17927 6.33973 9.68253C7.45298 10.8972 8.48875 12.1827 9.56157 13.4346C10.1925 14.1709 10.836 14.8965 11.4706 15.6298C11.6091 15.7902 11.7344 15.9629 11.9255 16.2051Z" fill="#475569"/>
</g>
</svg>
