<svg width="24" height="25" viewBox="0 0 24 25" fill="none" xmlns="http://www.w3.org/2000/svg">
<g id="cross" clip-path="url(#clip0_1_6565)">
<path id="icon" d="M11.4581 14.5098C9.3707 16.3813 7.32941 18.194 5.30855 20.0293C4.13781 21.0925 3.00899 22.2018 1.84099 23.2679C1.5299 23.5591 1.17242 23.7959 0.783304 23.9683C0.591423 24.0489 0.177069 23.9683 0.0825744 23.8205C-0.0424541 23.6243 -0.00548818 23.2762 0.0623293 23.0201C0.111666 22.8335 0.312547 22.6789 0.464092 22.529C3.34607 19.6873 6.22936 16.8474 9.11391 14.0094C9.43757 13.6911 9.77054 13.3825 10.1424 13.029C8.88184 11.6299 7.61931 10.2799 6.41402 8.87968C4.49038 6.64393 2.60534 4.37493 0.704364 2.11983C0.635261 2.03787 0.575819 1.94817 0.506073 1.86621C0.173414 1.4724 -0.0611134 1.04794 0.317668 0.570234C0.601312 0.21256 1.27939 0.265981 1.75154 0.75256C2.92741 1.964 4.07287 3.2048 5.20873 4.45513C7.28279 6.73685 9.34066 9.03342 11.4073 11.3219C11.4958 11.4052 11.5899 11.4822 11.6889 11.5525C13.2869 10.0229 14.8673 8.49826 16.4608 6.98674C18.3089 5.23467 20.1635 3.4895 22.0246 1.7512C22.7227 1.0978 23.2825 0.98003 23.7109 1.36126C24.1549 1.7562 24.1136 2.41603 23.4055 3.12347C21.4912 5.03639 19.5306 6.90285 17.572 8.7714C16.0798 10.1953 14.5639 11.5947 12.9758 13.082C14.2662 14.4187 15.5005 15.751 16.7945 17.0216C18.0374 18.2421 19.3497 19.3918 20.617 20.5871C21.1125 21.0369 21.5764 21.5205 22.0056 22.0344C22.3518 22.4656 22.4029 23.0009 21.9774 23.4262C21.5581 23.8456 21.0726 23.6974 20.6681 23.3799C19.8944 22.8042 19.1527 22.1862 18.4465 21.5289C16.2845 19.4085 14.1607 17.2492 12.023 15.104C11.8539 14.9346 11.6924 14.7568 11.4581 14.5098Z" fill="#475569"/>
</g>
<defs>
<clipPath id="clip0_1_6565">
<rect width="24" height="24" fill="white" transform="translate(0 0.169434)"/>
</clipPath>
</defs>
</svg>
