<svg width="24" height="24" viewBox="0 0 24 24" fill="#e79d64" xmlns="http://www.w3.org/2000/svg">
<g clip-path="url(#clip0_1_6491)">
<path d="M23.925 14.6341C23.9276 13.6258 23.9304 12.5829 23.9244 11.5572C23.9192 10.622 23.886 9.67206 23.8538 8.75331L23.8332 8.15978C23.8256 7.93505 23.8196 7.71014 23.8134 7.48542C23.7935 6.75986 23.7737 6.0096 23.7005 5.27512C23.6253 4.53061 23.4843 3.79424 23.279 3.07466C22.7051 1.05886 20.7915 0.145264 19.2462 0.145264H19.2226C16.4932 0.161826 13.7185 0.238015 11.0359 0.311602C10.0975 0.337321 9.1591 0.362207 8.22078 0.386272L7.68803 0.39925C6.63144 0.42444 5.53883 0.450513 4.46587 0.517455C2.52723 0.638348 1.23926 1.42869 0.528683 2.93355C0.321734 3.37184 0.200359 3.84558 0.171068 4.32939C-0.00952703 7.87207 0.0712954 11.4729 0.149543 14.9551C0.159658 15.4048 0.169581 15.8539 0.1793 16.3027L0.18614 16.623C0.206669 17.58 0.227992 18.5696 0.234141 19.5425C0.246736 21.5458 1.98207 23.4282 3.94769 23.5701C4.38061 23.5933 4.81448 23.5928 5.24736 23.5687C5.53625 23.5579 5.83536 23.546 6.12673 23.5505C7.4268 23.5683 8.74859 23.5938 10.0269 23.6183C10.7552 23.6322 11.4834 23.6458 12.2116 23.659C12.734 23.6681 13.2565 23.6763 13.7794 23.6839C14.6949 23.6976 15.6416 23.7118 16.5723 23.7334C16.7361 23.7427 16.8989 23.7671 17.0582 23.8063C17.1376 23.823 17.216 23.8398 17.2951 23.8533C17.3007 23.8543 17.3065 23.8547 17.3122 23.8547H18.327C18.3319 23.8547 18.3369 23.8544 18.3419 23.8537C18.5501 23.8229 18.7592 23.7956 18.9681 23.7685C19.4216 23.709 19.8904 23.6484 20.3454 23.5493C22.3543 23.1116 23.9652 21.0303 23.9371 18.9095C23.9179 17.4849 23.9216 16.0358 23.925 14.6341ZM22.5961 16.8715C22.5981 17.5921 22.5998 18.3128 22.6013 19.0335C22.6035 20.368 21.5089 21.8459 20.2586 22.1961C19.506 22.4176 18.7277 22.5395 17.9436 22.5585C16.846 22.5685 15.7543 22.5199 14.5985 22.4694C14.1436 22.4495 13.6811 22.4289 13.2081 22.4118L13.3195 13.6524C13.5159 13.6469 13.7078 13.6424 13.8962 13.6373C14.4375 13.6234 14.9487 13.6103 15.4614 13.5903C15.7362 13.5819 16.0099 13.5531 16.2804 13.504C16.6618 13.4318 16.8734 13.1849 16.8465 12.8437C16.8187 12.4909 16.5674 12.272 16.1906 12.272C15.8824 12.272 15.5695 12.2888 15.2673 12.3049C15.1514 12.311 15.0355 12.3173 14.9196 12.3225C14.5545 12.3393 14.1895 12.3566 13.8097 12.3747L13.3734 12.3955C13.3719 12.2105 13.3698 12.0257 13.3671 11.8414C13.3458 10.2174 13.3257 8.68341 13.9225 7.19482C14.4183 5.95803 15.7206 5.35616 16.9518 5.7952C17.2035 5.89693 17.4426 6.0273 17.6645 6.18376C17.8227 6.28591 17.9863 6.39203 18.157 6.479C18.2727 6.53851 18.5687 6.6696 18.8167 6.60791C19.0995 6.53849 19.2225 6.26588 19.1377 5.89636C19.0777 5.64234 18.9633 5.40437 18.8023 5.1989C18.6414 4.99342 18.4377 4.82536 18.2055 4.70628C17.705 4.42734 17.1514 4.25693 16.5806 4.20615C16.01 4.15537 15.435 4.22534 14.8931 4.41151C13.8767 4.76933 13.0782 5.54533 12.6437 6.59657C12.2603 7.53335 12.0524 8.53258 12.03 9.54452C12.0123 10.2214 12.0164 10.8904 12.0207 11.5986C12.0224 11.8823 12.0241 12.17 12.0244 12.4631L11.7086 12.4895C11.3952 12.516 11.0991 12.541 10.8074 12.561C10.6983 12.5686 10.5861 12.5688 10.4772 12.569C10.4026 12.569 10.3279 12.569 10.2536 12.5715C9.72435 12.5875 9.60177 12.8789 9.59215 13.1211C9.57807 13.4732 9.8149 13.6939 10.2255 13.7112C10.5578 13.7252 10.8945 13.7165 11.2202 13.7083C11.3634 13.7046 11.5065 13.7009 11.6496 13.6991C11.7263 13.698 11.803 13.6985 11.8935 13.6987H11.9464L12.0316 22.3082H11.8701C11.642 22.3082 11.3923 22.3082 11.1424 22.3082C10.5188 22.3089 9.89504 22.3079 9.27103 22.3052C7.87169 22.3012 6.42475 22.2971 5.00181 22.3216C3.9345 22.3362 3.03906 22.0309 2.4224 21.4273C1.774 20.7926 1.42888 19.8394 1.42442 18.6716L1.41906 17.262C1.40478 13.5509 1.38991 9.71341 1.39496 5.93926C1.38335 5.05822 1.594 4.18844 2.00746 3.41034C2.38253 2.72118 2.93642 2.29177 3.60921 2.1684C4.67344 1.97322 5.71457 1.79569 6.75182 1.76773C10.0196 1.67936 14.3215 1.57711 18.6172 1.56938H18.6289C20.6356 1.56938 21.821 2.5141 22.1519 4.37757C22.3829 5.67753 22.6279 7.19353 22.6112 8.73409C22.5811 11.447 22.5889 14.2046 22.5961 16.8715Z" />
</g>
<defs>
<clipPath id="clip0_1_6491">
<rect width="24" height="24" fill="white"/>
</clipPath>
</defs>
</svg>
