<svg width="24" height="24" viewBox="0 0 24 24" fill="#e1823a" xmlns="http://www.w3.org/2000/svg">
<g clip-path="url(#clip0_1_6743)">
<path d="M0.920282 14.6373C1.00714 14.6964 1.09473 14.7544 1.1874 14.8158L1.26865 14.8697C0.652233 15.4845 0.273846 16.14 0.112703 16.8717C-0.0382583 17.5574 0.159139 18.1353 0.699503 18.5908C0.770464 18.6506 0.842358 18.7091 0.91602 18.769L0.983035 18.8236C0.573477 19.3654 0.351336 19.9095 0.303855 20.4859C0.244634 21.2069 0.495229 21.7256 1.04858 22.0276C1.45668 22.2503 1.85782 22.4574 2.28026 22.5453C3.11773 22.7171 3.96406 22.8424 4.81535 22.9208C6.0033 23.0328 7.29118 23.125 8.753 23.2024C9.56724 23.2455 10.5132 23.2878 11.4968 23.2878C11.6485 23.2878 11.8009 23.2867 11.9539 23.2845C13.0693 23.2687 14.063 23.2028 14.938 22.5517C15.0383 22.4665 15.1636 22.4165 15.295 22.4093C15.4264 22.4022 15.5564 22.4382 15.6653 22.5121C15.8272 22.592 16.0018 22.6428 16.1814 22.6621C16.22 22.6685 16.2585 22.6751 16.2964 22.6822C17.8243 22.9672 19.3883 22.9325 20.9007 22.8988C21.1247 22.8938 21.3486 22.8891 21.5725 22.8849C22.403 22.87 22.9791 22.4043 23.2385 21.5379C23.3288 21.2466 23.3914 20.9475 23.4255 20.6444L23.4753 20.1651C23.5855 19.1053 23.6996 18.0104 23.7753 16.9299C23.9479 14.467 24.0046 11.9371 23.9439 9.41067C23.9318 8.91384 23.9031 8.42958 23.8587 7.97109C23.8007 7.37504 23.5138 6.92932 23.0289 6.68194C22.6282 6.47748 22.1741 6.24558 21.6963 6.13711C20.2458 5.80755 18.7518 5.88776 17.4334 5.95789C17.2992 5.96506 17.1605 5.96558 17.0264 5.966C16.5796 5.96766 16.1183 5.96942 15.6704 6.20568C15.2212 5.09992 14.4662 4.26117 13.7844 3.58511C13.5177 3.32073 13.2494 3.05774 12.9798 2.79613C12.556 2.38283 12.1175 1.9555 11.6962 1.52652C10.9949 0.813373 10.0926 0.57223 8.93794 0.788853C8.74866 0.824278 8.56838 0.897174 8.40767 1.00326C8.24698 1.10935 8.10909 1.24649 8.00213 1.40662C7.77196 1.75194 7.68839 2.17454 7.76974 2.58148C7.81763 2.84819 7.89686 3.10831 8.00579 3.35644C8.25639 3.90241 8.52826 4.43696 8.83206 5.02916C8.87029 5.10366 8.91042 5.17711 8.95062 5.25088C9.10041 5.49723 9.21355 5.76405 9.28651 6.04298C9.26822 6.04787 9.25119 6.05275 9.23519 6.05743C9.19451 6.07137 9.15224 6.08013 9.10938 6.0835C8.60029 6.08877 8.09117 6.09316 7.58208 6.0967C6.78946 6.10293 5.96994 6.10927 5.16402 6.12101C4.30579 6.13424 3.45343 6.26501 2.63072 6.50968C1.96586 6.69664 1.36907 7.07145 0.911962 7.58916C0.00588423 8.62698 0.0410163 9.8035 1.00548 10.7357C1.01071 10.7482 1.0145 10.7613 1.0168 10.7747C1.01867 10.7827 1.02065 10.7911 1.02283 10.8002C0.550907 11.28 0.228128 11.8862 0.0935774 12.5456C-0.102994 13.4268 0.175243 14.13 0.920282 14.6373ZM2.69689 11.2571C3.05076 11.1753 3.29421 10.9378 3.31727 10.652C3.34844 10.2695 2.96029 10.1205 2.72849 10.0316C2.6038 9.98679 2.47632 9.95017 2.34687 9.92194C2.2516 9.89909 2.15312 9.8754 2.05971 9.84517C1.62065 9.70324 1.48474 9.46075 1.59061 9.00818C1.66673 8.651 1.85391 8.32708 2.12536 8.08278C2.71216 7.56402 3.30698 7.3022 3.99726 7.25867L4.06603 7.25431C5.54136 7.16153 7.06594 7.06542 8.56879 7.206C8.97996 7.2401 9.39345 7.23473 9.8036 7.19C10.0832 7.16257 10.2667 7.07956 10.3646 6.93618C10.4581 6.79872 10.4705 6.61202 10.4011 6.36475C10.2154 5.73438 9.99542 5.11459 9.74229 4.50813C9.62323 4.21285 9.48785 3.91893 9.35704 3.63467C9.1958 3.28465 9.02916 2.92257 8.89264 2.55737C8.78189 2.26137 8.77213 2.05441 8.86262 1.92485C8.9554 1.79176 9.16318 1.7262 9.49638 1.73026C10.099 1.73389 10.5422 1.91218 10.8928 2.29129C11.2298 2.65555 11.5814 3.01742 11.9214 3.36735C12.4585 3.91987 13.0137 4.49119 13.5227 5.08413C14.5291 6.25649 14.9876 7.45026 14.9253 8.73368C14.8968 9.39298 14.9048 10.0534 14.9493 10.7118C14.9668 11.2241 14.9422 11.737 14.8758 12.2454C14.8435 12.5579 14.8101 12.881 14.7977 13.2012C14.7508 14.3979 14.7224 15.6151 14.6948 16.7924C14.6783 17.496 14.6619 18.1996 14.6416 18.903L14.6407 18.9321C14.6249 19.481 14.6086 20.0485 14.5422 20.5996C14.4303 21.528 14.0926 21.868 13.2039 21.947C12.5139 22.0083 11.8064 22.0153 11.1222 22.0221C10.8593 22.0247 10.5963 22.0273 10.3337 22.0325C10.0532 22.0383 9.76817 22.0368 9.49212 22.0353C9.38129 22.0347 9.27023 22.0343 9.15891 22.0339L9.15778 22.0163L9.11143 22.013C8.59417 21.9748 8.07674 21.9378 7.55913 21.9021C6.22126 21.8081 4.83778 21.7107 3.48027 21.584C2.93191 21.5328 2.38208 21.3406 1.91663 21.1596C1.51798 21.0043 1.43517 20.8334 1.53138 20.3646C1.58681 20.0923 1.6805 19.8292 1.80964 19.5831C1.98304 19.2577 2.20132 19.1183 2.5207 19.1333C2.76192 19.1336 2.99847 19.0669 3.20402 18.9406C3.37025 18.8439 3.55104 18.6351 3.55332 18.4664C3.55561 18.2976 3.3739 18.0807 3.20932 17.9913C2.96608 17.8732 2.70679 17.7917 2.43977 17.7491C2.02927 17.6652 1.75686 17.5798 1.66803 17.4137C1.5901 17.2682 1.62969 17.0456 1.814 16.5929C2.09047 15.9148 2.46333 15.4896 2.988 15.2549C3.14995 15.1967 3.28686 15.0844 3.37566 14.937C3.46446 14.7896 3.49973 14.6161 3.47551 14.4457C3.45036 14.0644 3.1659 13.9158 2.89099 13.8213C2.75093 13.773 2.6059 13.7346 2.46564 13.6976C2.31904 13.6589 2.16734 13.6189 2.02355 13.5678C1.58396 13.4119 1.47364 13.2338 1.53171 12.7752C1.64465 11.8857 2.00359 11.4176 2.69689 11.2571ZM17.8462 21.7017C17.3166 21.6805 16.7891 21.6239 16.267 21.5321C15.7621 21.449 15.765 21.4178 15.8123 20.8871C15.9003 19.9021 15.9722 18.8762 16.0324 17.751L16.0607 17.223C16.1315 15.9139 16.2047 14.5591 16.232 13.2258C16.2584 11.9362 16.2466 10.6244 16.2353 9.35592C16.2325 9.04714 16.2299 8.73839 16.2275 8.42968C16.2217 8.19574 16.2042 7.96224 16.175 7.73005C16.1646 7.63124 16.1534 7.52984 16.1439 7.42449C16.5664 7.41233 16.9891 7.39207 17.3984 7.37254C18.6679 7.31155 19.867 7.254 21.0867 7.41826C21.1217 7.42304 21.1567 7.42646 21.1919 7.42979C21.2462 7.43509 21.2974 7.44018 21.3482 7.44974C22.4732 7.66335 22.6397 7.86532 22.6203 8.98937L22.6117 9.48807C22.5656 12.171 22.5182 14.9452 22.4313 17.6724C22.4008 18.636 22.2832 19.6144 22.1694 20.5607L22.1349 20.8483C22.0506 21.5548 21.9101 21.6931 21.2509 21.7166C20.1145 21.757 18.9917 21.7326 17.8462 21.7017Z" />
<path d="M19.9334 8.39039C19.2996 8.09003 18.4401 8.23766 17.8895 8.74145C17.4464 9.14665 17.313 9.65335 17.4931 10.247C17.7438 11.0738 18.4627 11.5647 19.4657 11.5939C19.4893 11.5947 19.5127 11.595 19.5359 11.595C19.958 11.595 20.2913 11.4807 20.5274 11.2544C20.7993 10.9939 20.941 10.586 20.9484 10.0423V10.0383C20.8996 9.2412 20.5578 8.68618 19.9334 8.39039ZM19.9542 10.1027C19.9532 10.1755 19.9373 10.2473 19.9074 10.3136C19.8776 10.38 19.8343 10.4394 19.7805 10.4884C19.6935 10.5656 19.5922 10.6247 19.4822 10.6623C19.3722 10.7 19.2558 10.7154 19.1398 10.7076C18.8307 10.6953 18.4528 10.2275 18.4425 9.84452C18.4425 9.77913 18.4555 9.71439 18.4807 9.65406C18.506 9.59372 18.5429 9.53899 18.5894 9.49304C18.7414 9.34305 18.9459 9.25817 19.1595 9.25636H19.1742C19.3703 9.25818 19.5577 9.33752 19.6955 9.47704C19.7779 9.55898 19.8432 9.65649 19.8877 9.7639C19.932 9.8713 19.9547 9.98647 19.9542 10.1027Z" />
</g>
<defs>
<clipPath id="clip0_1_6743">
<rect width="24" height="24" fill="white"/>
</clipPath>
</defs>
</svg>
