<svg width="24" height="24" viewBox="0 0 24 24" fill="#e1823a" xmlns="http://www.w3.org/2000/svg">
<path d="M21.159 15.9898C21.1247 15.6627 21.0891 15.3246 21.0618 14.9917C21.0264 14.5601 20.9638 14.1236 20.9031 13.7015C20.7651 12.7389 20.6222 11.7436 20.7963 10.7501C20.8675 10.3431 20.9559 9.94211 21.0557 9.49717C21.1392 9.12537 21.2018 8.6869 21.0338 8.25407C20.9558 8.02991 20.829 7.8259 20.6625 7.65681C20.4961 7.48772 20.2939 7.35778 20.0711 7.27644C19.6176 7.12284 19.1021 7.20005 18.62 7.49431C17.6496 8.0868 16.987 8.9049 16.6511 9.92563C16.6273 9.99773 16.6025 10.0695 16.5725 10.1571L16.5504 10.2217L16.5281 10.1913C16.4864 10.1338 16.4545 10.0908 16.4254 10.0463C16.2037 9.70796 15.9839 9.36848 15.7658 9.02782C15.2878 8.28559 14.7935 7.51811 14.2791 6.78245C13.4789 5.63786 12.6273 4.51958 11.8235 3.47234C11.5887 3.17386 11.3109 2.91192 10.9992 2.69505C10.5296 2.36344 9.96897 2.33713 9.41927 2.62106C8.8801 2.89967 8.82572 3.43163 8.84357 3.91497C8.8467 3.99845 8.84604 4.08193 8.84521 4.18836C8.84521 4.21383 8.84522 4.24055 8.8447 4.26904C8.8087 4.23773 8.77542 4.20705 8.74401 4.17846C8.65333 4.0869 8.55084 4.00787 8.43922 3.94347C8.3548 3.90038 8.27036 3.8553 8.18574 3.81001C7.88343 3.63073 7.55893 3.49184 7.22052 3.3969C6.99536 3.3449 6.76105 3.34725 6.53697 3.40373C6.31288 3.46022 6.10544 3.56922 5.93181 3.72173C5.60489 4.01798 5.46028 4.45624 5.52487 4.95565C5.55513 5.19116 5.58393 5.42698 5.61409 5.67408L5.65093 5.9745L5.60615 5.97116C5.54135 5.96646 5.48647 5.9625 5.43169 5.95728C5.20083 5.92636 4.96597 5.94725 4.7442 6.01844C4.52243 6.08962 4.31929 6.20932 4.14955 6.36882C3.99597 6.5282 3.87994 6.71983 3.80981 6.92975C3.73968 7.13968 3.71724 7.36261 3.74418 7.58229C3.78673 7.91861 3.86558 8.24934 3.97937 8.56869C4.01214 8.67241 4.0449 8.77602 4.07506 8.87963C4.11836 9.01718 4.17065 9.15173 4.23158 9.28242C4.25036 9.3253 4.26893 9.36736 4.28625 9.40857C4.27717 9.41765 4.26999 9.42517 4.26384 9.43143C4.25889 9.43618 4.25434 9.44132 4.25018 9.44678C4.20294 9.46579 4.15451 9.48175 4.10523 9.49457C3.41924 9.65902 2.98745 10.0959 2.78554 10.8302C2.64822 11.3292 2.67568 11.8555 2.86956 12.4395C3.23802 13.5267 3.74329 14.5626 4.37328 15.5222C5.72702 17.606 7.29798 19.5402 9.05976 21.2926C10.0007 22.2405 10.8858 22.9026 11.8447 23.3759C12.6206 23.7639 13.4763 23.9657 14.3438 23.9654C14.9932 23.9612 15.6382 23.8589 16.2569 23.662C18.1446 23.0763 19.5687 21.9132 20.4899 20.2051C20.9398 19.3709 21.3401 18.544 21.2969 17.6022C21.2714 17.0631 21.2142 16.5175 21.159 15.9898ZM5.59605 11.4913C5.88698 11.9068 6.19992 12.3162 6.50263 12.7121C6.72259 12.9999 6.94994 13.2974 7.16677 13.5945C7.43067 13.9558 7.68948 14.3307 7.9396 14.6931C8.10061 14.9264 8.2617 15.1597 8.42522 15.3913C8.64435 15.7012 8.84942 15.8705 9.13909 15.6911C9.22001 15.6398 9.28972 15.5727 9.34411 15.4938C9.39851 15.4149 9.43645 15.3259 9.45565 15.232C9.47523 15.1459 9.47699 15.0567 9.46085 14.9699C9.44469 14.883 9.41098 14.8004 9.36175 14.7271C8.73566 13.8088 8.21328 13.0731 7.71898 12.4106C7.5322 12.1601 7.33824 11.9097 7.15062 11.6668C6.49145 10.8141 5.80983 9.93261 5.33004 8.93995C5.15895 8.56938 5.00682 8.19035 4.87418 7.80434L4.80111 7.60315C4.71899 7.37922 4.75499 7.2012 4.90786 7.07431C5.05812 6.9491 5.23387 6.93304 5.46093 7.02278C5.93786 7.20384 6.34388 7.53343 6.61915 7.96294L6.83706 8.29843C7.51084 9.33596 8.20743 10.4089 8.90395 11.4567C9.2243 11.9387 9.57596 12.4103 9.91614 12.8665L9.93494 12.8918C10.0748 13.0811 10.2327 13.2565 10.4064 13.4153C10.5116 13.5155 10.6435 13.583 10.7862 13.6097C10.929 13.6364 11.0764 13.6212 11.2107 13.5659C11.4211 13.489 11.5562 13.3676 11.6013 13.214C11.6199 13.1297 11.6181 13.0422 11.5961 12.9587C11.5741 12.8752 11.5325 12.7982 11.4747 12.734C11.2924 12.4933 11.0956 12.2582 10.9052 12.0308C10.7688 11.8679 10.6277 11.6994 10.4935 11.5307C9.41603 10.1758 8.04988 8.3601 7.04042 6.32897C6.82129 5.88914 6.7036 5.38639 6.59174 4.86695C6.55094 4.67693 6.56711 4.54431 6.63984 4.47251C6.71528 4.39822 6.86292 4.38391 7.0665 4.43076C7.52944 4.54083 7.94084 4.80596 8.23231 5.18208C8.38459 5.36991 8.53762 5.55711 8.69143 5.74368C9.24124 6.41516 9.80983 7.10937 10.3266 7.82207C10.8692 8.56972 11.3894 9.35297 11.8929 10.1103C12.1209 10.4532 12.3488 10.796 12.5795 11.137C12.6592 11.2548 12.7318 11.3553 12.8013 11.4439C12.8355 11.4913 12.879 11.5311 12.929 11.5612C12.9791 11.5912 13.0347 11.6108 13.0926 11.6188C13.1388 11.6234 13.1856 11.6183 13.2297 11.6039C13.2739 11.5897 13.3146 11.5663 13.3494 11.5353C13.4765 11.4071 13.5574 11.2402 13.579 11.0609C13.5958 10.9499 13.5201 10.8306 13.4537 10.7252L13.4301 10.6878C13.1426 10.2238 12.8539 9.76073 12.564 9.29839C12.0021 8.39965 11.4209 7.47043 10.8637 6.54799C10.5086 5.95228 10.187 5.33717 9.9006 4.70552C9.77853 4.41528 9.70792 4.10599 9.69191 3.79154C9.67469 3.58191 9.73041 3.42215 9.84843 3.34191C9.96853 3.26041 10.1406 3.26802 10.3339 3.3635C10.5319 3.4689 10.7062 3.61371 10.846 3.78903C11.2704 4.30221 11.6826 4.80746 12.0622 5.34652C12.6356 6.16043 13.2072 6.99658 13.7599 7.80497C14.0332 8.20483 14.3069 8.6044 14.5812 9.0037C14.7813 9.29414 14.9821 9.58398 15.1839 9.87323C15.4209 10.2141 15.6573 10.5555 15.8929 10.8973C15.9809 11.0257 16.0654 11.1566 16.1497 11.2876C16.2571 11.4545 16.3682 11.6262 16.4855 11.7905C16.5984 11.9558 16.734 12.1043 16.8885 12.2316C16.9802 12.311 17.0973 12.355 17.2185 12.3557C17.3399 12.3564 17.4574 12.3136 17.5499 12.2351C17.7247 12.0978 17.7763 11.8926 17.6992 11.6414C17.6764 11.567 17.6496 11.4933 17.6227 11.4198C17.5738 11.2956 17.5348 11.1678 17.5061 11.0374C17.2932 9.91457 18.1507 8.73544 18.8515 8.31596C19.1381 8.14451 19.4184 8.00687 19.6968 8.20033C19.9912 8.40496 19.9336 8.71947 19.8493 9.02406C19.679 9.64086 19.4846 10.4577 19.4945 11.3059C19.4958 11.4077 19.4955 11.5095 19.4953 11.6115C19.4884 11.9213 19.5006 12.2312 19.5318 12.5395C19.6132 13.205 19.7114 13.8794 19.8062 14.5316C19.8561 14.8753 19.9062 15.2189 19.9541 15.5627C19.978 15.7343 19.9977 15.907 20.0174 16.0789C20.0383 16.2582 20.0592 16.4435 20.085 16.6254C20.2601 17.8602 19.8911 19.0108 18.8883 20.3559C17.836 21.7673 16.2388 22.6875 14.6152 22.8174H14.5664C12.6077 22.8174 11.4636 22.1668 10.3528 21.1909C9.50137 20.4427 8.42681 19.4156 7.66935 18.1042C7.52715 17.8743 7.36483 17.6575 7.18441 17.4562C7.10479 17.3623 7.02249 17.2645 6.94611 17.1666C5.64969 15.5058 4.73144 13.8679 4.13916 12.1593C4.03306 11.8477 3.99178 11.5177 4.0179 11.1896C4.03522 10.9943 4.10358 10.8557 4.21523 10.7873C4.27533 10.7524 4.34396 10.7347 4.41348 10.7365C4.51421 10.7396 4.61339 10.7621 4.70563 10.8027C5.06442 10.9382 5.37469 11.178 5.59605 11.4913Z" />
<path d="M12.3346 3.40679L12.3953 3.47828C12.5124 3.62648 12.6652 3.74249 12.8394 3.81542C12.9878 3.86759 13.2542 3.8919 13.3814 3.78495C13.503 3.68248 13.5409 3.40115 13.4858 3.25131C13.4128 3.08104 13.3164 2.92182 13.1993 2.77831C13.1588 2.72353 13.1185 2.66884 13.0806 2.61322C13.0232 2.52975 12.963 2.44742 12.8942 2.35402C12.8773 2.33096 12.8597 2.30717 12.842 2.28244C13.6799 2.18587 14.5286 2.26067 15.3367 2.50231C17.4086 3.15094 18.7384 4.13743 19.5218 5.60686C19.5291 5.62032 19.5362 5.63462 19.5435 5.64922C19.572 5.73012 19.6272 5.7989 19.7 5.84416C19.7778 5.87644 19.861 5.89372 19.9452 5.89508C19.9921 5.8959 20.0387 5.88779 20.0825 5.87118C20.1827 5.8309 20.2442 5.65863 20.2426 5.55814C20.2372 5.42323 20.1963 5.29213 20.1242 5.17799C20.052 5.06321 19.9815 4.94311 19.9134 4.82656C19.7429 4.50342 19.5322 4.20312 19.2864 3.93281C17.5097 2.15013 15.3722 1.32026 12.9316 1.46697C12.8585 1.47125 12.783 1.47041 12.6784 1.46926L12.6054 1.46843L13.0107 1.13097C13.0611 1.08923 13.1121 1.04812 13.163 1.00711C13.2778 0.915076 13.3957 0.81991 13.5047 0.716918C13.5947 0.63177 13.8058 0.43236 13.6299 0.180047C13.4449 -0.0856226 13.1834 0.0813291 13.085 0.143834L13.0683 0.154279C12.5706 0.471183 12.0561 0.798826 11.5647 1.1438C11.1386 1.44317 11.0731 1.77302 11.3586 2.18195C11.6575 2.60947 12.0017 3.01486 12.3346 3.40679Z" />
</svg>
