<svg width="24" height="24" viewBox="0 0 24 24" fill="#e1823a" xmlns="http://www.w3.org/2000/svg">
<path d="M22.8864 12.1938C22.8429 11.5785 22.7068 10.9733 22.4826 10.3986C22.3411 9.97753 22.0566 9.61934 21.6784 9.3864C21.3 9.15346 20.8521 9.06052 20.4124 9.12375C20.1066 9.17212 19.8084 9.26001 19.5253 9.38521C19.4053 9.43194 19.2815 9.48006 19.155 9.52367C19.0209 9.20792 18.8153 8.92768 18.5543 8.70511C18.2933 8.48255 17.9841 8.32375 17.6511 8.24129C16.8404 8.02425 16.1727 8.20333 15.6665 8.77333C15.3946 8.33625 15.0247 7.89352 14.3751 7.78102C13.8207 7.68444 13.3713 7.89929 12.8797 8.26206C12.8636 8.03129 12.849 7.80548 12.8346 7.58348C12.7979 7.01971 12.7634 6.48733 12.7102 5.95217C12.6886 5.73563 12.6678 5.51887 12.6474 5.30187C12.5575 4.35571 12.4644 3.37725 12.2928 2.42821C12.202 1.92525 11.9704 1.37163 11.5848 0.735636C11.1684 0.0486354 10.4661 -0.101017 9.70702 0.335483C9.01713 0.732291 8.85375 1.41525 8.78856 1.96598C8.73848 2.38887 8.73083 2.82237 8.72264 3.24167L8.71863 3.44821C8.71171 3.77783 8.70429 4.10755 8.69645 4.4374C8.6706 5.5669 8.64376 6.73494 8.64411 7.88406C8.64411 8.73952 8.67073 9.57894 8.69842 10.4675C8.70996 10.8163 8.72045 11.1679 8.72979 11.5235C8.72318 11.518 8.71661 11.5126 8.71007 11.5072C8.63265 11.4433 8.56364 11.3863 8.49175 11.3334C7.32314 10.4729 6.06995 10.1663 4.76818 10.4218C4.48251 10.4702 4.21397 10.5908 3.98804 10.7722C3.76212 10.9536 3.58629 11.1897 3.47737 11.4582C3.37067 11.7429 3.33745 12.0499 3.38075 12.3508C3.42405 12.6518 3.54247 12.9369 3.7251 13.18C3.91251 13.4214 4.12581 13.6416 4.36112 13.8366L4.43578 13.9033C5.29527 14.6495 6.01058 15.547 6.54616 16.5513C7.27689 17.9603 8.10015 19.4496 9.06361 21.1045C9.31423 21.5351 9.71587 21.8883 10.0378 22.1479C10.6448 22.6375 11.3711 23.0382 12.3231 23.409C13.1659 23.7407 14.0634 23.911 14.9691 23.9108C15.9963 23.8984 17.0135 23.7079 17.9754 23.3476C18.6853 23.0815 19.3423 22.6918 19.9163 22.1968C20.9556 21.3331 21.6798 20.1534 22.1303 18.5905C22.7324 16.5144 22.9879 14.3531 22.8864 12.1938ZM10.7763 21.0198C10.5688 20.8817 10.3875 20.7077 10.241 20.506C9.88199 19.9899 9.5497 19.4556 9.24548 18.9054C8.78267 18.0463 8.31535 17.1244 7.85647 16.1649C7.15355 14.6953 6.2533 13.5373 5.1043 12.6246C4.91057 12.4691 4.74804 12.2784 4.62525 12.0625C4.59126 12.0085 4.56921 11.9479 4.56057 11.8847C4.55193 11.8216 4.55691 11.7572 4.57516 11.6961C4.604 11.6247 4.64743 11.5601 4.70266 11.5065C4.7579 11.4529 4.8237 11.4113 4.89591 11.3846C5.12231 11.2848 5.3672 11.2337 5.61464 11.2346C5.74964 11.2351 5.88432 11.2484 6.01679 11.2744C7.02652 11.468 7.70139 11.8451 8.13985 12.461C8.29184 12.7018 8.40922 12.9628 8.48855 13.2364C8.51474 13.3128 8.54092 13.389 8.56815 13.4636C8.66634 13.7316 8.80409 13.9794 9.14367 13.9794H9.15071C9.45268 13.9763 9.66224 13.7934 9.74093 13.4643C9.78445 13.288 9.80568 13.1068 9.80415 12.9252C9.78107 11.5263 9.75095 10.0356 9.71333 8.36821C9.70618 8.04917 9.69328 7.72506 9.68093 7.41156C9.65716 6.81398 9.63272 6.19598 9.64634 5.58998C9.67253 4.4306 9.75187 3.2524 9.82871 2.1131L9.83728 1.98848C9.87743 1.39079 10.0911 1.09252 10.5504 0.996173C10.9174 1.24194 11.1409 1.63379 11.2527 2.22675C11.4062 3.01755 11.5122 3.81682 11.5701 4.62029C11.6548 5.87556 11.7176 7.15367 11.7778 8.38967C11.8041 8.92514 11.8311 9.46048 11.8586 9.99571C11.8739 10.2876 11.9406 10.598 12.3193 10.6865C12.6943 10.7743 12.8962 10.4567 13.0299 10.1702C13.0621 10.1009 13.0939 10.0317 13.1257 9.96248C13.2671 9.62105 13.4446 9.29581 13.6557 8.99244C13.8403 8.74806 14.0749 8.6291 14.2974 8.6659C14.5248 8.70329 14.7119 8.89563 14.811 9.19344C14.882 9.44819 14.9201 9.71099 14.9241 9.9754C14.9291 10.0596 14.9343 10.1435 14.9412 10.2266C14.9444 10.2967 14.9412 10.367 14.9315 10.4365C14.9114 10.5466 14.9154 10.6597 14.943 10.7681C15.0087 10.9405 15.1384 11.0808 15.3051 11.1596C15.3556 11.1817 15.4101 11.1935 15.4653 11.1944C15.5203 11.1953 15.5751 11.1852 15.6263 11.1648C15.6815 11.1402 15.7312 11.1049 15.7726 11.061C15.8139 11.0171 15.8463 10.9654 15.8675 10.9089C15.8977 10.8297 15.9217 10.7484 15.9396 10.6656C15.9552 10.5944 15.9754 10.5243 15.9998 10.4556C16.0344 10.3662 16.067 10.2758 16.0999 10.1853C16.1923 9.90717 16.3072 9.63704 16.4435 9.3776C16.638 9.0326 16.8742 8.94225 17.2851 9.05544C17.8079 9.19944 18.1365 9.52621 18.2354 10.0007C18.2856 10.2806 18.314 10.5639 18.3203 10.8482C18.3245 10.9349 18.3288 11.0212 18.3342 11.108C18.351 11.3771 18.4149 11.6644 18.7641 11.7542C19.109 11.8436 19.2927 11.6256 19.4401 11.377C19.476 11.3165 19.5112 11.2555 19.5464 11.1942C19.6531 10.9986 19.7729 10.8104 19.9049 10.6309C20.1736 10.2831 20.4941 10.1078 20.7839 10.1502C21.0589 10.1901 21.2903 10.4191 21.4356 10.7949C21.6807 11.3894 21.8269 12.02 21.8683 12.6617C21.9252 14.1603 21.7388 15.7273 21.2641 17.7426C21.0448 18.6596 20.6484 19.5249 20.0975 20.29C19.4699 21.1708 18.5491 21.79 17.283 22.1823C15.0165 22.8845 12.8879 22.5038 10.7763 21.0198Z" />
<path d="M1.69592 8.83505C1.728 8.83505 1.76221 8.83421 1.79852 8.83251C2.5859 8.79513 3.38425 8.72705 4.15641 8.66117L4.6295 8.62101C4.7878 8.60774 4.96225 8.58109 5.05537 8.48348C5.11883 8.41713 5.32469 8.18348 5.31465 7.95986C5.30807 7.81124 5.08164 7.61982 4.91756 7.58555C4.69721 7.55609 4.47318 7.57328 4.25991 7.63598L4.1226 7.66713C3.6618 7.7944 3.18354 7.84702 2.7061 7.82301L7.22553 2.43351C7.24226 2.5504 7.25702 2.66198 7.27168 2.7694C7.31402 3.08532 7.35045 3.35786 7.4101 3.63155C7.50633 4.07105 7.73608 4.31001 8.02027 4.27436C8.23246 4.24701 8.47192 4.08894 8.4058 3.49171C8.32319 2.74725 8.20465 2.00763 8.09954 1.38248C8.01877 0.901786 7.90131 0.807404 7.40723 0.82425C6.80815 0.843981 6.19941 0.871326 5.61071 0.897749C5.28418 0.912441 4.95758 0.92671 4.63096 0.940556C4.47081 0.947249 4.17278 0.959481 4.14463 1.29571C4.13681 1.35758 4.14151 1.42039 4.15844 1.4804C4.17536 1.54043 4.20418 1.59642 4.24316 1.64509C4.28536 1.69217 4.33653 1.7303 4.39371 1.75726C4.45089 1.78421 4.51288 1.79943 4.57603 1.80201C4.85999 1.82509 5.14938 1.82948 5.42919 1.83398C5.57919 1.83628 5.72919 1.83871 5.87827 1.84367C5.98454 1.84736 6.09022 1.85682 6.21287 1.86778L6.29575 1.87517L1.87029 7.4629C1.87029 7.37186 1.87118 7.28613 1.87176 7.20455C1.87337 6.94436 1.87491 6.71994 1.86798 6.49805L1.86579 6.42882C1.85229 6.00398 1.83834 5.56482 1.79068 5.13524C1.76367 5.0315 1.70327 4.93951 1.61885 4.87344C1.58716 4.8429 1.55717 4.81066 1.52898 4.77686L1.48859 4.72609L1.35991 4.84794C1.28525 4.91798 1.20807 4.99032 1.13596 5.06648C1.10341 5.11107 1.08834 5.16602 1.09353 5.22098C1.09572 5.49974 1.09606 5.77851 1.09629 6.05728C1.0971 6.77117 1.09792 7.5094 1.13184 8.23448C1.14338 8.49098 1.19228 8.63832 1.29405 8.72694C1.41001 8.81148 1.55319 8.85001 1.69592 8.83505Z" />
</svg>
