<svg width="24" height="24" viewBox="0 0 24 24" fill="#e1823a" xmlns="http://www.w3.org/2000/svg">
<path d="M21.9411 5.08666C21.6058 4.84666 21.1322 4.83288 20.6417 5.04918C20.2893 5.21131 19.9569 5.4137 19.6511 5.65234C18.8456 6.26133 18.162 7.07785 17.4995 8.22209C17.4414 8.32258 17.381 8.42173 17.3207 8.5209L17.3188 8.52417C17.2968 8.19782 17.2934 7.87048 17.3086 7.54374C17.3117 7.43876 17.3147 7.33438 17.3165 7.22991L17.3245 6.75788C17.3389 5.95107 17.3537 5.11618 17.3318 4.29579C17.3119 3.55751 17.1724 2.95352 16.905 2.44922C16.6905 2.045 16.3841 1.78539 16.0187 1.6995C15.6533 1.61361 15.2639 1.70828 14.892 1.97392C14.7613 2.0723 14.638 2.18002 14.5229 2.29623C14.4857 2.33197 14.4476 2.36854 14.408 2.40571C14.4022 2.36588 14.3968 2.32727 14.3915 2.28958C14.3757 2.15509 14.3519 2.02168 14.32 1.89006C14.3008 1.81765 14.2828 1.74454 14.2645 1.67121C14.2073 1.40135 14.1223 1.13812 14.011 0.885739C13.7935 0.43699 13.4616 0.149916 13.0764 0.0775068C12.6805 0.00274932 12.2514 0.157059 11.8688 0.511749C11.3231 1.01748 11.0938 1.69193 10.9551 2.2231C10.5488 3.77911 10.4217 5.35444 10.3083 7.10481C10.2689 7.71196 10.2532 8.31379 10.2368 8.95117C10.2298 9.21537 10.2228 9.48387 10.2139 9.75798L10.1229 9.70835C10.0333 9.65943 9.96451 9.62175 9.89415 9.58712C9.25176 9.27002 8.47763 8.95189 7.61281 8.99989L7.50752 9.0055C7.10339 9.01627 6.70082 9.05985 6.30375 9.13581C4.74916 9.47927 3.65802 10.4093 3.06067 11.8999C2.87807 12.3556 2.88368 12.7824 3.077 13.1342C3.27442 13.4934 3.66037 13.7431 4.16365 13.8372C4.64481 13.931 5.14364 13.84 5.56076 13.5826C5.66289 13.5213 5.76431 13.4582 5.86562 13.3953C5.98674 13.3199 6.10776 13.2446 6.23052 13.1722C6.86075 12.8007 7.53948 12.7551 8.24763 13.0369C8.49095 13.1355 8.71035 13.2851 8.8911 13.4754C9.07185 13.6659 9.20975 13.8927 9.29557 14.1409C9.38246 14.38 9.41718 14.635 9.3974 14.8886C9.37762 15.1423 9.30379 15.3888 9.18088 15.6115C9.01962 15.8943 8.81736 16.1516 8.58067 16.375C8.27535 16.6767 7.87163 16.8585 7.44333 16.8871C7.01504 16.9156 6.59075 16.7891 6.24807 16.5306C5.96114 16.3023 5.69283 16.0516 5.44566 15.7808C5.32975 15.6603 5.20975 15.5357 5.08821 15.4173C4.98823 15.3202 4.88946 15.2164 4.79387 15.116C4.58362 14.8804 4.35105 14.6658 4.0994 14.4752C3.58754 14.1135 2.98276 14.0382 2.48161 14.2737C1.98047 14.5092 1.65437 15.0192 1.60657 15.6402C1.57933 16.0448 1.60335 16.451 1.67806 16.8495C1.83462 17.729 2.23189 18.5276 2.66002 19.3362C3.57334 21.0612 4.81687 22.2812 6.35604 22.9625C7.82882 23.6144 9.30017 23.9409 10.756 23.9408C11.7537 23.9396 12.7453 23.7872 13.6973 23.4884C15.4593 22.9403 16.7021 21.7791 17.3909 20.037C17.8664 18.8346 18.1671 17.4984 18.3101 15.9519C18.4102 14.8704 18.513 13.9001 18.6244 12.9857C18.644 12.734 18.7209 12.4901 18.8491 12.2727C19.2423 11.6822 19.6526 11.088 20.0495 10.5144C20.414 9.98716 20.7908 9.44199 21.1537 8.90071C21.505 8.37798 21.8265 7.83585 22.1167 7.27689C22.2705 6.97583 22.3655 6.64816 22.3964 6.31148C22.444 5.77306 22.2777 5.32748 21.9411 5.08666ZM10.2189 16.2931C10.7122 15.5407 10.7667 14.5987 10.3685 13.7088C9.92405 12.7157 9.01114 11.9801 8.04266 11.8346C7.10309 11.6935 6.28607 11.8504 5.54564 12.3146C5.48866 12.3503 5.43269 12.3885 5.37662 12.4269C5.25116 12.5198 5.11555 12.5982 4.9724 12.6605C4.77409 12.7433 4.55974 12.7806 4.34512 12.7697C4.17151 12.7515 4.05274 12.697 3.99351 12.6079C3.92978 12.512 3.92702 12.3655 3.98523 12.1727C4.2332 11.3523 4.78795 10.7463 5.63428 10.3717C6.7537 9.87604 7.79939 9.87124 8.83016 10.3558L8.88429 10.3813C9.40657 10.6264 9.89995 10.8579 10.2012 11.3791C10.3566 11.6479 10.6114 11.7592 10.8832 11.6767C11.2203 11.5745 11.2365 11.2639 11.2482 11.0373C11.2738 10.5447 11.2963 10.0517 11.319 9.55872C11.3706 8.43174 11.4241 7.26648 11.5131 6.12367C11.6022 4.98474 11.7472 3.64196 12.1463 2.31767C12.2459 2.00728 12.3829 1.71014 12.5542 1.43274C12.6223 1.33659 12.7077 1.25392 12.8059 1.18895C12.8409 1.16219 12.8758 1.13565 12.9086 1.10828C13.1697 1.29344 13.2091 1.53926 13.2301 1.81684C13.2428 1.98321 13.2566 2.14968 13.2704 2.31625C13.3424 3.01585 13.3724 3.71912 13.3603 4.42232C13.3066 5.83802 13.2136 7.27627 13.1236 8.66725C13.09 9.18674 13.057 9.70623 13.0247 10.2257C13.0194 10.3116 13.0057 10.3994 12.9923 10.4848C12.9816 10.5536 12.9708 10.6222 12.9639 10.6912C12.9191 11.1401 13.0726 11.4501 13.3742 11.5207C13.4356 11.5346 13.4992 11.5354 13.5609 11.5232C13.6226 11.5108 13.681 11.4856 13.7323 11.4492C13.8256 11.3769 13.9034 11.2864 13.961 11.1834C14.0185 11.0802 14.0546 10.9666 14.0672 10.8492C14.1404 10.3904 14.1926 9.89473 14.2265 9.33395C14.2883 8.31083 14.3429 7.27015 14.3958 6.26379C14.418 5.84009 14.4403 5.41639 14.4631 4.9927C14.5003 4.30211 14.7775 3.66504 15.3108 3.04431C15.4718 2.8568 15.6172 2.77152 15.7332 2.79808C15.8437 2.8234 15.9335 2.95455 15.9926 3.17739C16.122 3.62513 16.1926 4.08779 16.2026 4.55376C16.2045 5.63356 16.1617 6.73203 16.1201 7.79436L16.1119 8.00782C16.0895 8.58535 16.0562 9.17208 16.0241 9.74021C16.0045 10.0867 15.9849 10.4333 15.9676 10.78C15.9606 10.9226 15.966 11.0655 15.9836 11.2072C15.9884 11.3154 16.0294 11.4191 16.0999 11.5013C16.1705 11.5836 16.2666 11.6399 16.3729 11.6611C16.6126 11.711 16.7988 11.6155 16.942 11.3695C17.4347 10.5226 17.9521 9.64226 18.4798 8.75283C19.0751 7.74933 19.6858 7.04016 20.4016 6.52105C20.5742 6.4009 20.7532 6.29027 20.9378 6.18964C21.0129 6.14695 21.0879 6.10425 21.1625 6.06024L21.2499 6.11999C21.2273 6.18832 21.2069 6.25775 21.1865 6.3272C21.1423 6.50258 21.0779 6.67224 20.9946 6.83274C20.6605 7.41191 20.2969 7.96248 20.0172 8.37752L19.9333 8.50202C19.4046 9.28707 18.8578 10.0989 18.2926 10.8769C17.5497 11.8995 17.2918 13.042 17.1317 14.4422C16.9638 15.9159 16.7736 17.5862 16.23 19.149C15.6377 20.8512 14.4507 21.8817 12.701 22.212C10.9148 22.56 9.06688 22.4035 7.36464 21.7599C5.894 21.2067 4.73271 20.1679 3.91385 18.6722C3.4747 17.8698 3.06874 17.0744 2.92964 16.1691C2.89748 15.9678 2.89429 15.7629 2.92015 15.5608C2.92157 15.5246 2.93186 15.4895 2.95014 15.4582C2.96842 15.4271 2.9941 15.401 3.02492 15.3821C3.04565 15.3723 3.06837 15.3673 3.09131 15.3676C3.13945 15.3695 3.18622 15.3841 3.22693 15.4098C3.38538 15.5076 3.52971 15.6266 3.65588 15.7635L3.72348 15.8338C3.99923 16.1197 4.28386 16.4153 4.53611 16.7273C5.01009 17.3138 5.65237 17.7383 6.49982 18.0255C7.43592 18.3421 8.3567 18.171 9.16299 17.5293C9.62451 17.161 9.98666 16.6474 10.2189 16.2931Z" />
</svg>
