<svg width="24" height="24" viewBox="0 0 24 24" fill="#e79d64" xmlns="http://www.w3.org/2000/svg">
<g clip-path="url(#clip0_1_6493)">
<path d="M16.7352 8.11572C15.5759 6.98644 14.085 6.86457 12.8444 7.79782C12.3567 8.16461 11.8877 8.67952 11.4107 9.37159C10.8032 10.2537 10.6464 11.329 10.5082 12.2774C10.2635 13.9555 10.451 15.6217 10.6322 17.2325C10.659 17.4705 10.7207 18.018 11.2555 18.0179C11.2726 18.0179 11.2903 18.0174 11.3085 18.0162C11.8396 17.9822 11.8416 17.5278 11.8429 17.2271C11.8429 17.1981 11.8429 17.1699 11.8437 17.1425C11.8504 16.7818 11.8416 16.4155 11.8331 16.0614C11.821 15.5554 11.8083 15.0322 11.8415 14.5227C11.9032 13.4539 12.0286 12.3898 12.2171 11.3358C12.3809 10.4543 12.872 9.66727 13.5919 9.1326C14.3571 8.5506 15.0401 8.61935 15.6808 9.3422C16.1658 9.88492 16.4893 10.5526 16.6145 11.2696C16.7565 12.1029 16.8544 12.9592 16.9489 13.7876C16.9858 14.1104 17.0227 14.4334 17.0621 14.7557L17.0452 14.758C17.0221 14.7612 17.0007 14.7721 16.9848 14.7891C16.9689 14.8061 16.9592 14.828 16.9576 14.8513C16.9476 14.9974 16.9373 15.1436 16.9267 15.2897C16.9014 15.6416 16.8752 16.0055 16.8568 16.3642L16.8546 16.4077C16.833 16.6677 16.8357 16.929 16.8622 17.1885C16.9241 17.6475 17.2471 17.9775 17.666 18.0096C18.0693 18.0404 18.4442 17.7673 18.5985 17.3301C18.6335 17.2266 18.6553 17.119 18.6633 17.0099C18.8171 15.2617 18.9047 12.961 18.2118 10.6674C17.8914 9.60641 17.4082 8.77149 16.7352 8.11572Z" />
<path d="M7.12946 17.014C7.13585 17.3277 7.21398 17.6357 7.35785 17.9147C7.44815 18.0891 7.74825 18.1797 7.93366 18.1797C7.93966 18.1797 7.94546 18.1797 7.95126 18.1797C8.12536 18.1741 8.3405 17.9645 8.38791 17.8033C8.46076 17.5362 8.4903 17.2592 8.47544 16.9827C8.41642 15.3647 8.34844 13.7199 8.28294 12.1293L8.15242 8.94811C8.14259 8.70585 8.12401 8.25474 7.57545 8.20949C7.55742 8.20822 7.53934 8.21162 7.523 8.21934C7.10162 8.42363 7.11492 8.80793 7.12565 9.11678C7.12751 9.1696 7.12936 9.22211 7.12917 9.27335C7.12149 11.3941 7.11421 14.1904 7.12946 17.014Z"/>
<path d="M7.60532 5.07518C7.53872 5.02394 7.46988 4.97101 7.40939 4.91593C7.39535 4.90303 7.37794 4.89441 7.35918 4.89105C7.34042 4.88769 7.32108 4.88974 7.30345 4.89695C6.63715 5.16656 6.59466 5.6305 6.6763 5.9722C6.71645 6.10885 6.78518 6.23542 6.87794 6.3435C6.97069 6.45158 7.08535 6.53872 7.21432 6.59915C7.25269 6.61311 7.29333 6.6198 7.33414 6.61885C7.54571 6.61885 7.83116 6.47188 7.92382 6.32188C7.99436 6.19888 8.03804 6.06234 8.05202 5.92124C8.06601 5.78014 8.04998 5.63771 8.00496 5.50326C7.93246 5.3271 7.76613 5.19922 7.60532 5.07518Z" />
<path d="M23.4928 4.03526C23.1429 1.16214 20.7251 0.00886871 18.4852 0.141557C17.1558 0.219558 15.8393 0.261159 14.2715 0.29952C12.8511 0.33434 11.3945 0.364268 10.1094 0.390628C8.26531 0.428595 6.3584 0.467927 4.46505 0.520255C2.29128 0.580452 0.538501 1.98072 0.201419 3.92561C0.0660749 4.7061 0.0621351 5.49377 0.0704957 6.36849C0.0949875 8.92302 0.132365 11.5041 0.168857 14.0002L0.172891 14.2705C0.187382 15.2747 0.201535 16.2789 0.215372 17.2832C0.217732 17.4524 0.223633 17.6219 0.229731 17.7915L0.230236 17.8051C0.254969 18.2253 0.250799 18.6467 0.217749 19.0663C0.100798 20.1869 0.529748 21.3817 1.36532 22.2622C2.29414 23.241 3.61049 23.7386 5.07291 23.664C6.66872 23.5814 8.2965 23.5973 9.87065 23.6124L9.98465 23.6135C11.8527 23.6314 13.7525 23.6789 15.5921 23.7251L16.5196 23.7482C16.6758 23.7576 16.8308 23.781 16.9827 23.8185C17.0623 23.8354 17.1421 23.8522 17.2214 23.8659C17.2328 23.8678 17.2444 23.8688 17.256 23.8688H18.2625C18.2723 23.8688 18.2823 23.868 18.292 23.8667C18.4931 23.8372 18.6953 23.8105 18.8967 23.7841L18.9119 23.7822C19.3634 23.7232 19.8306 23.6623 20.2858 23.5634C22.2494 23.1368 23.9131 21.1003 23.9186 19.1163C23.92 18.6487 23.9217 18.1811 23.9235 17.7135L23.9244 17.4788C23.9343 14.9159 23.9451 12.2657 23.89 9.65618C23.8497 7.75811 23.7161 5.86693 23.4928 4.03526ZM22.401 18.9779C22.4071 20.5103 21.0705 21.945 19.3581 22.2441C18.0461 22.4733 16.7049 22.3954 15.4078 22.3203C14.9263 22.2924 14.4284 22.2635 13.9336 22.2504C13.3719 22.2357 12.7999 22.2066 12.2436 22.1784L12.1944 22.1759C11.955 22.1638 11.7154 22.1517 11.4778 22.1409H11.4667C10.8614 22.1409 10.256 22.1401 9.65063 22.1387C8.94813 22.1375 8.23472 22.1363 7.51757 22.1363C6.57478 22.1363 5.7997 22.1383 5.07822 22.1426H5.04645C3.9875 22.1426 3.11397 21.8284 2.52027 21.2339C1.90295 20.6158 1.58082 19.6926 1.58899 18.5638C1.60807 15.9098 1.59655 13.2229 1.58534 10.6243C1.57904 9.14049 1.57255 7.60634 1.57176 6.09051C1.55699 5.2175 1.75446 4.35397 2.14718 3.57414C2.59256 2.71762 3.38809 2.2631 4.65065 2.14378C6.42232 1.97657 7.8519 1.88548 9.14958 1.85725C12.8959 1.77522 15.7791 1.7462 18.4977 1.76302C20.4807 1.77532 21.6255 2.70818 21.9993 4.615C22.4124 6.72877 22.4065 8.90138 22.4002 11.0036L22.3997 11.1818C22.3908 14.1636 22.3916 16.6409 22.401 18.9779Z" />
</g>
<defs>
<clipPath id="clip0_1_6493">
<rect width="24" height="24" fill="white"/>
</clipPath>
</defs>
</svg>
