<svg width="24" height="24" viewBox="0 0 24 24" fill="none" xmlns="http://www.w3.org/2000/svg">
<g clip-path="url(#clip0_7_2896)">
<path d="M1.99964 18.599C2.09202 18.0086 2.33897 17.4822 2.56839 17.045C2.95533 16.3074 3.51438 15.679 4.05512 15.0715C4.14348 14.9721 4.23163 14.8726 4.3196 14.773C5.36943 13.5779 6.45511 12.3431 7.69292 11.2336C8.58817 10.4312 9.62273 10.1239 10.8548 10.2941C10.9391 10.3058 11.0237 10.3164 11.1084 10.327C11.5926 10.3878 12.0501 10.4452 12.4672 10.6846C12.5655 10.7366 12.6715 10.7727 12.7813 10.7914C12.8468 10.8033 12.9141 10.8017 12.979 10.7871C13.044 10.7723 13.1053 10.7447 13.1592 10.7057C13.223 10.6621 13.2773 10.6061 13.319 10.5412C13.3607 10.4763 13.3887 10.4038 13.4016 10.3279C13.4262 10.1801 13.4115 10.0284 13.3591 9.8879C13.3067 9.74749 13.2183 9.62293 13.1026 9.52665C12.7383 9.20023 12.2907 8.97914 11.8084 8.88749C11.28 8.77736 10.7456 8.69805 10.2079 8.64993C9.01803 8.5409 7.98317 8.84804 7.13191 9.56328C6.30544 10.2445 5.51423 10.9667 4.7613 11.7273C3.96832 12.5444 3.21179 13.4208 2.48023 14.2681L2.15696 14.6423C1.52044 15.3856 0.994003 16.215 0.59354 17.1055C0.268915 17.8179 0.0923348 18.5878 0.0743512 19.3695V19.3718C0.0714124 21.0032 0.69512 22.2364 1.92833 23.0373C2.88725 23.6599 3.88065 23.9719 4.89786 23.9719C5.52135 23.9682 6.13947 23.8573 6.72479 23.6442C7.10477 23.5093 7.44352 23.3797 7.76032 23.2478C8.87646 22.7837 9.86365 22.0333 10.961 20.8152C11.6016 20.1043 12.2319 19.3637 12.8418 18.6474C13.1516 18.2835 13.4621 17.9203 13.7735 17.5579C13.8774 17.4375 13.9875 17.3178 14.0941 17.2018C14.2776 17.0024 14.4673 16.7961 14.6352 16.5762C14.8083 16.3588 14.9321 16.1069 14.9982 15.8378C15.0187 15.7358 15.0113 15.6303 14.9769 15.5322C14.9424 15.434 14.8822 15.3469 14.8023 15.2795C14.7159 15.2029 14.6107 15.1501 14.4972 15.1266C14.3837 15.1031 14.2659 15.1096 14.1558 15.1456C13.9533 15.2126 13.7664 15.3191 13.6062 15.4589C13.4124 15.6405 13.2309 15.8346 13.0629 16.0397L12.9867 16.1286C12.5935 16.5852 12.2012 17.0424 11.8097 17.5004C11.1502 18.2706 10.4683 19.067 9.79091 19.8445C8.72316 21.0697 7.3922 21.823 5.83337 22.0834C5.28508 22.1849 4.72094 22.165 4.18129 22.0251C2.58328 21.5826 1.93528 20.7291 1.94459 19.0793C1.94933 18.9405 1.96445 18.8021 1.98984 18.6655L1.99964 18.599Z" fill="#4f3b31"/>
<path d="M21.1827 0.190397C20.4649 0.0219108 19.7338 0.0252093 19.0265 0.0296789L18.8583 0.0304618C18.0484 0.0335711 17.2922 0.27765 16.5464 0.7765C15.3361 1.56949 14.2207 2.49642 13.2216 3.53942C12.5507 4.25038 11.8488 5.03053 11.0763 5.92426C10.6982 6.36151 10.3494 6.92389 10.6308 7.77623C10.635 7.78885 10.6417 7.80052 10.6505 7.81053C10.6594 7.82053 10.6701 7.8287 10.6822 7.83454C10.6943 7.84034 10.7076 7.84369 10.721 7.84443C10.7344 7.84516 10.7479 7.84325 10.7606 7.8388C11.4365 7.59793 11.921 7.31538 12.3306 6.92244L12.3528 6.90116C12.8679 6.40688 13.4009 5.89569 13.8968 5.36536C15.1049 4.07364 16.1924 3.1078 17.3189 2.32542C17.8753 1.92677 18.544 1.7118 19.2303 1.71094C19.7601 1.70119 20.2895 1.74534 20.8102 1.8427C21.5807 1.9967 22.4167 2.55832 22.4503 3.67243C22.4782 4.58521 22.2924 5.28761 21.8654 5.88324C21.6915 6.12567 21.5199 6.37024 21.3482 6.61491C20.8017 7.39379 20.2365 8.19872 19.6039 8.92115C18.8077 9.83005 17.7103 10.9702 16.2783 11.7275C15.1047 12.3486 13.7718 12.6107 12.4481 12.4807C11.8965 12.4449 11.3749 12.219 10.9733 11.8421C10.801 11.6772 10.6161 11.5259 10.4201 11.3894C10.1531 11.2074 9.8414 11.2158 9.64444 11.4108C9.53943 11.5028 9.46852 11.6269 9.44309 11.7636C9.41766 11.9002 9.43916 12.0413 9.50415 12.1644C9.6044 12.3804 9.72446 12.5868 9.86276 12.7812C10.3128 13.3816 10.9599 13.7828 11.8415 14.0074C12.2446 14.1087 12.6591 14.159 13.0748 14.1571C13.7151 14.1453 14.3516 14.0576 14.9709 13.896C16.2346 13.5928 17.403 12.9228 18.5429 11.8477C20.4672 10.0327 22.0009 7.91703 23.122 6.27667C23.6254 5.53947 23.9032 4.67367 23.922 3.7835C23.9436 3.07739 23.8866 2.17598 23.2484 1.46802C22.6371 0.791166 21.962 0.373263 21.1827 0.190397Z" fill="#4f3b31"/>
</g>
<defs>
<clipPath id="clip0_7_2896">
<rect width="24" height="24" fill="white"/>
</clipPath>
</defs>
</svg>
