<svg width="150" height="44" viewBox="0 0 150 44" fill="none" xmlns="http://www.w3.org/2000/svg">
<g clip-path="url(#clip0_5_1421)">
<path d="M6.80853 2.00747C8.77916 2.00747 10.3228 2.50013 11.4395 3.48544C12.5562 4.47076 13.1145 5.8502 13.1145 7.62377C13.1145 8.32991 13.0078 9.02784 12.7943 9.71756C12.5808 10.4073 12.236 11.0395 11.7597 11.6143C11.2999 12.1726 10.6841 12.6242 9.91227 12.9691C9.15686 13.2975 8.22902 13.4618 7.12875 13.4618H4.49304V19.8663H1.93122V2.00747H6.80853ZM7.10412 10.9492C7.77742 10.9492 8.33576 10.8425 8.77916 10.629C9.23897 10.3991 9.59204 10.1117 9.83837 9.76683C10.1011 9.42197 10.2818 9.06068 10.3803 8.68298C10.4952 8.30528 10.5527 7.96863 10.5527 7.67303C10.5527 7.34459 10.4952 6.99973 10.3803 6.63845C10.2818 6.26075 10.1011 5.91589 9.83837 5.60387C9.59204 5.27543 9.25539 5.01268 8.82842 4.81562C8.40145 4.60213 7.86774 4.49539 7.22729 4.49539H4.49304V10.9492H7.10412Z" fill="#E1823A"/>
<path d="M16.1582 19.8663V0.726562H18.5969V11.9099L18.5476 11.4911C18.9089 10.8178 19.4426 10.2677 20.1488 9.84072C20.8549 9.39733 21.7006 9.17564 22.686 9.17564C23.6548 9.17564 24.4513 9.46302 25.0753 10.0378C25.6994 10.5961 26.0196 11.3351 26.036 12.2547V19.8663H23.5481V13.1169C23.5317 12.5914 23.3757 12.1644 23.0801 11.836C22.7845 11.4911 22.3247 11.3105 21.7006 11.2941C20.8303 11.2941 20.0995 11.6636 19.5083 12.4025C18.9335 13.1251 18.6462 14.0447 18.6462 15.1614V19.8663H16.1582Z" fill="#E1823A"/>
<path d="M29.9421 9.56976H32.43V19.8663H29.9421V9.56976ZM29.8189 5.87483C29.8189 5.49713 29.9667 5.1769 30.2623 4.91415C30.5743 4.6514 30.911 4.52002 31.2722 4.52002C31.6335 4.52002 31.962 4.6514 32.2576 4.91415C32.5532 5.1769 32.7009 5.49713 32.7009 5.87483C32.7009 6.28538 32.5532 6.61382 32.2576 6.86015C31.962 7.10648 31.6335 7.22964 31.2722 7.22964C30.911 7.22964 30.5743 7.10648 30.2623 6.86015C29.9667 6.61382 29.8189 6.28538 29.8189 5.87483Z" fill="#E1823A"/>
<path d="M36.3168 0.726562H38.8047V19.8663H36.3168V0.726562Z" fill="#E1823A"/>
<path d="M42.6915 9.56976H45.1794V19.8663H42.6915V9.56976ZM42.5683 5.87483C42.5683 5.49713 42.7161 5.1769 43.0117 4.91415C43.3237 4.6514 43.6604 4.52002 44.0217 4.52002C44.383 4.52002 44.7114 4.6514 45.007 4.91415C45.3026 5.1769 45.4504 5.49713 45.4504 5.87483C45.4504 6.28538 45.3026 6.61382 45.007 6.86015C44.7114 7.10648 44.383 7.22964 44.0217 7.22964C43.6604 7.22964 43.3237 7.10648 43.0117 6.86015C42.7161 6.61382 42.5683 6.28538 42.5683 5.87483Z" fill="#E1823A"/>
<path d="M55.2244 20.1126C54.469 20.1126 53.7383 19.9484 53.0321 19.62C52.3424 19.2751 51.9483 18.8488 51.5541 18.2576V17.4523V24.8175H49.0662V9.39733H51.2093L51.4219 11.084L51.3078 11.2202C51.8005 10.6126 52.4163 10.1199 53.1553 9.74219C53.9107 9.34807 54.7564 9.151 55.6925 9.151C56.6614 9.151 57.5317 9.38091 58.3036 9.84072C59.0754 10.3005 59.683 10.9492 60.1264 11.7867C60.5698 12.6078 60.7915 13.5767 60.7915 14.6934C60.7915 15.8101 60.5451 16.779 60.0525 17.6001C59.5762 18.4048 58.9194 19.0288 58.0819 19.4722C57.2443 19.8991 56.2919 20.1126 55.2244 20.1126ZM54.7318 18.142C55.3722 18.142 55.9552 17.9942 56.4807 17.6986C57.0226 17.403 57.4496 17.0007 57.7616 16.4916C58.0901 15.9661 58.2543 15.3749 58.2543 14.718C58.2543 14.0447 58.1065 13.4453 57.8109 12.9198C57.5153 12.3943 57.113 11.9838 56.6039 11.6882C56.0948 11.3926 55.5282 11.2448 54.9042 11.2448C54.0503 11.2448 53.3277 11.4747 52.7365 11.9345C52.1617 12.3943 51.7676 13.0019 51.5541 13.7574V15.6048C51.6855 16.3438 52.0468 16.9514 52.638 17.4276C53.2292 17.9039 53.9271 18.142 54.7318 18.142Z" fill="#E1823A"/>
<path d="M69.9464 20.1126C69.191 20.1126 68.4603 19.9484 67.7541 19.62C67.0644 19.2751 66.6703 18.9589 66.2761 18.3677V17.4523V24.8175H63.7882V9.39733H65.9313L66.1417 11.0866L66.0298 11.2202C66.5225 10.6126 67.1383 10.1199 67.8773 9.74219C68.6327 9.34807 69.4784 9.151 70.4145 9.151C71.3834 9.151 72.2537 9.38091 73.0255 9.84072C73.7974 10.3005 74.405 10.9492 74.8484 11.7867C75.2918 12.6078 75.5135 13.5767 75.5135 14.6934C75.5135 15.8101 75.2671 16.779 74.7745 17.6001C74.2982 18.4048 73.6414 19.0288 72.8038 19.4722C71.9663 19.8991 71.0139 20.1126 69.9464 20.1126ZM69.4538 18.142C70.0942 18.142 70.6772 17.9942 71.2027 17.6986C71.7446 17.403 72.1716 17.0007 72.4836 16.4916C72.812 15.9661 72.9763 15.3749 72.9763 14.718C72.9763 14.0447 72.8285 13.4453 72.5329 12.9198C72.2373 12.3943 71.835 11.9838 71.3259 11.6882C70.8168 11.3926 70.2502 11.2448 69.6262 11.2448C68.7723 11.2448 68.0497 11.4747 67.4585 11.9345C66.8837 12.3943 66.4896 13.0019 66.2761 13.7574V15.6048C66.4075 16.3438 66.7688 16.9514 67.36 17.4276C67.9512 17.9039 68.6491 18.142 69.4538 18.142Z" fill="#E1823A"/>
<path d="M83.3382 20.1126C82.1559 20.1126 81.1377 19.8827 80.2838 19.4229C79.4298 18.9467 78.7729 18.298 78.3131 17.4769C77.8533 16.6394 77.6234 15.6951 77.6234 14.6441C77.6234 13.626 77.878 12.7063 78.387 11.8853C78.9125 11.0477 79.6105 10.3826 80.4808 9.88999C81.3512 9.39733 82.3201 9.151 83.3875 9.151C84.7669 9.151 85.9083 9.55334 86.8115 10.358C87.7311 11.1463 88.3469 12.263 88.659 13.7081L80.6109 16.511C80.6109 16.511 80.4029 16.1607 80.2914 15.8362C80.1935 15.551 80.1216 15.0823 80.1216 15.0823L86.4174 12.7228L85.8429 12.9381C85.6459 12.4126 85.391 12.0905 84.964 11.7128C84.537 11.3187 83.9541 11.1216 83.2151 11.1216C82.2955 11.1216 81.54 11.4419 80.9489 12.0823C80.3741 12.7063 80.0867 13.511 80.0867 14.4963C80.0867 15.5473 80.3987 16.3931 81.0228 17.0335C81.6468 17.674 82.435 17.9942 83.3875 17.9942C83.8309 17.9942 84.2579 17.9203 84.6684 17.7725C85.079 17.6083 85.4649 17.3948 85.8262 17.1321L86.9593 18.9795C86.4338 19.3244 85.8508 19.6036 85.2103 19.817C84.5863 20.0141 83.9623 20.1126 83.3382 20.1126Z" fill="#E1823A"/>
<path d="M93.3952 19.8663L101.253 1.26848H101.401L109.259 19.8663H106.278L101.253 7.06527L95.957 19.8663H93.3952ZM98.729 13.1662H103.648L104.518 15.3831H97.8118L98.729 13.1662Z" fill="#E1823A"/>
<path d="M116.463 20.1126C115.28 20.1126 114.262 19.8827 113.408 19.4229C112.554 18.9467 111.897 18.298 111.438 17.4769C110.978 16.6394 110.748 15.6951 110.748 14.6441C110.748 13.626 111.002 12.7063 111.512 11.8853C112.037 11.0477 112.735 10.3826 113.605 9.88999C114.476 9.39733 115.445 9.151 116.512 9.151C117.891 9.151 119.033 9.55334 119.936 10.358C120.856 11.1463 121.471 12.263 121.783 13.7081L113.729 16.5004C113.729 16.5004 113.518 16.1323 113.422 15.8533C113.322 15.5623 113.243 15.0545 113.243 15.0545L118.972 12.9365L119.025 13.0676C118.827 12.5421 118.515 12.0905 118.088 11.7128C117.662 11.3187 117.079 11.1216 116.34 11.1216C115.42 11.1216 114.665 11.4419 114.073 12.0823C113.499 12.7063 113.211 13.511 113.211 14.4963C113.211 15.5473 113.523 16.3931 114.147 17.0335C114.771 17.674 115.56 17.9942 116.512 17.9942C116.955 17.9942 117.382 17.9203 117.793 17.7725C118.203 17.6083 118.589 17.3948 118.951 17.1321L120.084 18.9795C119.558 19.3244 118.975 19.6036 118.335 19.817C117.711 20.0141 117.087 20.1126 116.463 20.1126Z" fill="#E1823A"/>
<path d="M126.794 9.56976L126.983 12.0398L126.941 12.1316C127.22 11.5075 127.606 10.9738 128.099 10.5304C128.608 10.0871 129.134 9.7504 129.676 9.5205C130.234 9.27417 130.702 9.151 131.08 9.151L130.956 11.6143C130.185 11.565 129.503 11.7128 128.912 12.0577C128.337 12.4025 127.886 12.8624 127.557 13.4371C127.229 14.0119 127.064 14.6277 127.064 15.2846V19.8663H124.577V9.56976H126.794Z" fill="#E1823A"/>
<path d="M134.944 5.06195H137.456V9.5944H140.215V11.5404H137.456V19.8663H134.944V11.5404H133.121V9.5944H134.944V5.06195Z" fill="#E1823A"/>
<path d="M145.936 20.088C145.18 20.088 144.458 19.9566 143.768 19.6939C143.078 19.4147 142.495 19.0206 142.019 18.5115L143.078 17.0828C143.505 17.4933 143.949 17.8054 144.408 18.0188C144.885 18.2323 145.328 18.3391 145.739 18.3391C146.215 18.3391 146.633 18.2487 146.995 18.0681C147.356 17.871 147.537 17.5508 147.537 17.1074C147.537 16.7461 147.414 16.467 147.167 16.2699C146.937 16.0728 146.642 15.9086 146.28 15.7772C145.919 15.6459 145.533 15.5227 145.123 15.4078C144.269 15.1286 143.612 14.7345 143.152 14.2254C142.709 13.6999 142.487 13.0841 142.487 12.3779C142.487 11.836 142.618 11.3269 142.881 10.8507C143.16 10.358 143.579 9.96389 144.137 9.66829C144.696 9.35628 145.385 9.20027 146.207 9.20027C146.929 9.20027 147.578 9.29059 148.153 9.47123C148.727 9.63545 149.261 9.92283 149.754 10.3334L148.793 11.836C148.497 11.5404 148.144 11.3187 147.734 11.1709C147.34 11.0067 146.978 10.9164 146.65 10.8999C146.207 10.8999 145.821 11.0067 145.492 11.2202C145.164 11.4172 145 11.6882 145 12.033C145 12.3779 145.114 12.6571 145.344 12.8706C145.574 13.0676 145.87 13.2319 146.231 13.3632C146.609 13.4782 146.987 13.6013 147.364 13.7327C148.12 13.979 148.744 14.3157 149.236 14.7427C149.745 15.1696 150 15.7937 150 16.6148C150 17.2388 149.852 17.8136 149.557 18.3391C149.261 18.8646 148.809 19.2915 148.202 19.62C147.611 19.932 146.855 20.088 145.936 20.088Z" fill="#E1823A"/>
<path d="M4.78863 40.6154C3.85258 40.6154 3.02492 40.3937 2.30564 39.9503C1.58636 39.5069 1.0198 38.8812 0.605969 38.0733C0.20199 37.2653 0 36.3145 0 35.2208C0 34.1271 0.20199 33.1763 0.605969 32.3683C1.0198 31.5505 1.58636 30.9199 2.30564 30.4765C3.02492 30.0233 3.85258 29.7966 4.78863 29.7966C5.636 29.7966 6.39469 29.9838 7.06471 30.3583C7.73472 30.7228 8.28157 31.2401 8.70526 31.9101L7.5081 32.6196C7.20265 32.1466 6.81838 31.782 6.35528 31.5259C5.89218 31.2697 5.36997 31.1416 4.78863 31.1416C4.11862 31.1416 3.52743 31.3091 3.01506 31.6441C2.51255 31.9791 2.11843 32.4521 1.83269 33.063C1.54694 33.664 1.40407 34.3833 1.40407 35.2208C1.40407 36.0485 1.54694 36.7677 1.83269 37.3786C2.11843 37.9797 2.51255 38.4477 3.01506 38.7827C3.52743 39.1177 4.11862 39.2852 4.78863 39.2852C5.36997 39.2852 5.89218 39.1571 6.35528 38.9009C6.81838 38.6448 7.20265 38.2802 7.5081 37.8072L8.70526 38.5167C8.28157 39.1768 7.73472 39.6941 7.06471 40.0685C6.39469 40.4331 5.636 40.6154 4.78863 40.6154Z" fill="#180901"/>
<path d="M13.2855 40.5563C12.6352 40.5563 12.0538 40.4035 11.5415 40.0981C11.039 39.7828 10.6399 39.3443 10.3443 38.7827C10.0586 38.2211 9.91569 37.5708 9.91569 36.8318C9.91569 36.0928 10.0586 35.4474 10.3443 34.8956C10.6399 34.334 11.039 33.9005 11.5415 33.595C12.0538 33.2797 12.6352 33.1221 13.2855 33.1221C13.9358 33.1221 14.5122 33.2797 15.0147 33.595C15.5271 33.9005 15.9261 34.334 16.2119 34.8956C16.5075 35.4474 16.6552 36.0928 16.6552 36.8318C16.6552 37.5708 16.5075 38.2211 16.2119 38.7827C15.9261 39.3443 15.5271 39.7828 15.0147 40.0981C14.5122 40.4035 13.9358 40.5563 13.2855 40.5563ZM13.2855 39.3443C13.8865 39.3443 14.3742 39.1226 14.7487 38.6792C15.1329 38.226 15.3251 37.6102 15.3251 36.8318C15.3251 36.0534 15.1329 35.4425 14.7487 34.9991C14.3742 34.5557 13.8865 34.334 13.2855 34.334C12.6844 34.334 12.1918 34.5557 11.8075 34.9991C11.4331 35.4425 11.2459 36.0534 11.2459 36.8318C11.2459 37.6102 11.4331 38.226 11.8075 38.6792C12.1918 39.1226 12.6844 39.3443 13.2855 39.3443Z" fill="#180901"/>
<path d="M20.2367 40.5119C19.5174 40.5316 18.9213 40.3691 18.4483 40.0242C17.9852 39.6695 17.7537 39.1621 17.7537 38.5019C17.7537 38.0191 17.9064 37.6003 18.2119 37.2456C18.5272 36.8909 18.9262 36.615 19.409 36.4179C19.9017 36.211 20.4091 36.1076 20.9313 36.1076C21.2368 36.0879 21.5176 36.1174 21.7738 36.1963C22.0299 36.2652 22.2516 36.3687 22.4389 36.5066V35.6198C22.4389 35.0681 22.3206 34.7084 22.0841 34.5409C21.8575 34.3734 21.5028 34.2897 21.02 34.2897C20.6062 34.2897 20.1628 34.3636 19.6898 34.5114C19.2267 34.6592 18.8326 34.8464 18.5074 35.073L17.8867 34.0384C18.2907 33.7822 18.7686 33.5655 19.3203 33.3881C19.882 33.2108 20.4485 33.1221 21.02 33.1221C21.9265 33.1221 22.6014 33.3044 23.0448 33.6689C23.4882 34.0236 23.7099 34.6739 23.7099 35.6198V39.1818C23.7099 39.369 23.7592 39.4774 23.8577 39.5069C23.9562 39.5365 24.1779 39.5118 24.5228 39.433V40.2902C24.3947 40.3395 24.2321 40.3888 24.0351 40.438C23.838 40.4873 23.636 40.5119 23.4291 40.5119C23.1138 40.5119 22.8872 40.4528 22.7492 40.3346C22.6113 40.2163 22.5177 40.0045 22.4684 39.6991C22.2024 39.9651 21.8674 40.1622 21.4634 40.2902C21.0594 40.4183 20.6505 40.4922 20.2367 40.5119ZM20.2515 39.3443C20.6653 39.3345 21.0397 39.2754 21.3747 39.167C21.7196 39.0487 21.9905 38.8862 22.1876 38.6792C22.3847 38.4625 22.4733 38.2063 22.4536 37.9107C22.4339 37.6348 22.2911 37.4378 22.025 37.3195C21.7688 37.2013 21.4388 37.152 21.0348 37.1717C20.6702 37.1816 20.3352 37.2505 20.0298 37.3786C19.7243 37.4969 19.478 37.6545 19.2908 37.8516C19.1134 38.0486 19.0247 38.2703 19.0247 38.5167C19.0346 38.7926 19.1479 39.0044 19.3647 39.1522C19.5814 39.2901 19.877 39.3542 20.2515 39.3443Z" fill="#180901"/>
<path d="M28.7147 40.5563C28.0644 40.5563 27.483 40.4035 26.9707 40.0981C26.4682 39.7828 26.0691 39.3493 25.7735 38.7975C25.4878 38.2359 25.3449 37.5856 25.3449 36.8466C25.3449 36.1076 25.4878 35.4573 25.7735 34.8956C26.0691 34.334 26.4682 33.9005 26.9707 33.595C27.483 33.2797 28.0644 33.1221 28.7147 33.1221C29.2566 33.1221 29.7542 33.2354 30.2074 33.462C30.6607 33.6788 31.04 33.999 31.3455 34.4227L30.2961 35.206C29.9316 34.6247 29.4044 34.334 28.7147 34.334C28.1137 34.334 27.621 34.5557 27.2367 34.9991C26.8623 35.4425 26.6751 36.0583 26.6751 36.8466C26.6751 37.625 26.8623 38.2359 27.2367 38.6792C27.621 39.1226 28.1137 39.3443 28.7147 39.3443C29.4044 39.3443 29.9365 39.0586 30.3109 38.4871L31.3455 39.2557C31.04 39.6793 30.6607 40.0045 30.2074 40.2311C29.7542 40.4479 29.2566 40.5563 28.7147 40.5563Z" fill="#180901"/>
<path d="M32.9459 40.3937V29.7966H34.276V34.2158C34.4534 33.9202 34.7145 33.664 35.0594 33.4472C35.4042 33.2305 35.8033 33.1221 36.2565 33.1221C37.0054 33.1221 37.6113 33.3635 38.0744 33.8463C38.5474 34.3192 38.7838 35.0089 38.7838 35.9154V40.3937H37.4684V36.1963C37.4684 35.5755 37.3305 35.1124 37.0546 34.807C36.7787 34.4917 36.4191 34.334 35.9757 34.334C35.4732 34.334 35.0643 34.5015 34.749 34.8365C34.4337 35.1617 34.276 35.6001 34.276 36.1519V40.3937H32.9459Z" fill="#180901"/>
<path d="M41.0196 40.3937V33.2994H42.335V40.3937H41.0196ZM41.6699 31.9693C41.4236 31.9693 41.2118 31.8855 41.0344 31.718C40.8669 31.5406 40.7831 31.3288 40.7831 31.0825C40.7831 30.8361 40.8669 30.6292 41.0344 30.4617C41.2118 30.2844 41.4236 30.1957 41.6699 30.1957C41.9064 30.1957 42.1084 30.2844 42.2759 30.4617C42.4533 30.6292 42.5419 30.8361 42.5419 31.0825C42.5419 31.3288 42.4533 31.5406 42.2759 31.718C42.1084 31.8855 41.9064 31.9693 41.6699 31.9693Z" fill="#180901"/>
<path d="M44.5358 40.3937V33.2994H45.733L45.8069 34.2158C46.0138 33.9202 46.2897 33.664 46.6345 33.4472C46.9892 33.2305 47.3932 33.1221 47.8465 33.1221C48.5953 33.1221 49.2013 33.3635 49.6644 33.8463C50.1373 34.3192 50.3738 35.0089 50.3738 35.9154V40.3937H49.0584V36.1963C49.0584 35.5755 48.9205 35.1124 48.6446 34.807C48.3687 34.4917 48.009 34.334 47.5657 34.334C47.0631 34.334 46.6542 34.5015 46.3389 34.8365C46.0236 35.1617 45.866 35.6001 45.866 36.1519V40.3937H44.5358Z" fill="#180901"/>
<path d="M55.2256 43.4531C53.8462 43.4531 52.8165 42.9112 52.1366 41.8273L53.2008 41.1031C53.6442 41.852 54.3191 42.2264 55.2256 42.2264C55.866 42.2264 56.3489 42.0195 56.674 41.6056C56.9992 41.2017 57.1617 40.5711 57.1617 39.7138V38.9305C56.9253 39.2261 56.6346 39.4576 56.2897 39.6252C55.9547 39.7927 55.5803 39.8764 55.1665 39.8764C54.5556 39.8764 54.0087 39.7434 53.5259 39.4774C53.0431 39.2113 52.6638 38.827 52.3879 38.3245C52.1219 37.8122 51.9888 37.2013 51.9888 36.4918C51.9888 35.7726 52.1219 35.1666 52.3879 34.6739C52.6638 34.1714 53.0431 33.7872 53.5259 33.5211C54.0087 33.2551 54.5556 33.1221 55.1665 33.1221C55.6 33.1221 55.9941 33.2157 56.3489 33.4029C56.7134 33.5802 57.0189 33.8315 57.2652 34.1567L57.3095 33.2994H58.4771V39.7138C58.4771 40.9356 58.1963 41.8618 57.6347 42.4924C57.0829 43.1329 56.2799 43.4531 55.2256 43.4531ZM55.2551 38.7088C55.8365 38.7088 56.3144 38.5068 56.6888 38.1028C57.0632 37.6989 57.2504 37.1619 57.2504 36.4918C57.2504 35.8218 57.0632 35.2898 56.6888 34.8956C56.3144 34.5015 55.8365 34.3045 55.2551 34.3045C54.6837 34.3045 54.2156 34.5015 53.8511 34.8956C53.4964 35.2898 53.319 35.8218 53.319 36.4918C53.319 37.1619 53.4964 37.6989 53.8511 38.1028C54.2156 38.5068 54.6837 38.7088 55.2551 38.7088Z" fill="#180901"/>
<path d="M67.1103 40.5415C66.5093 40.5415 65.9477 40.4331 65.4255 40.2163C64.9032 39.9996 64.4598 39.6646 64.0953 39.2113L64.9673 38.3541C65.4993 39.034 66.2334 39.3739 67.1695 39.3739C67.603 39.3739 67.9479 39.2951 68.204 39.1374C68.4602 38.9798 68.5883 38.7187 68.5883 38.3541C68.5883 38.0585 68.4553 37.8417 68.1893 37.7038C67.9232 37.556 67.4503 37.418 66.7704 37.29C66.327 37.2013 65.928 37.083 65.5732 36.9352C65.2284 36.7874 64.9525 36.5756 64.7456 36.2997C64.5387 36.014 64.4352 35.6445 64.4352 35.1912C64.4352 34.7577 64.5534 34.3882 64.7899 34.0828C65.0264 33.7675 65.3368 33.5261 65.721 33.3585C66.1152 33.191 66.5487 33.1073 67.0217 33.1073C68.1745 33.1073 69.0514 33.4768 69.6525 34.2158L68.8691 35.1173C68.6524 34.8316 68.3863 34.6247 68.071 34.4966C67.7557 34.3586 67.4109 34.2897 67.0364 34.2897C66.6128 34.2897 66.2975 34.3783 66.0905 34.5557C65.8836 34.7232 65.7802 34.9252 65.7802 35.1617C65.7802 35.4376 65.8984 35.6396 66.1349 35.7676C66.3713 35.8957 66.8 36.0288 67.4207 36.1667C67.9134 36.2751 68.3469 36.418 68.7213 36.5953C69.1056 36.7727 69.4012 37.0042 69.6081 37.29C69.8249 37.5757 69.9333 37.9452 69.9333 38.3984C69.9333 39.0783 69.6722 39.6054 69.1499 39.9799C68.6376 40.3543 67.9577 40.5415 67.1103 40.5415Z" fill="#180901"/>
<path d="M74.3962 40.5563C73.7459 40.5563 73.1645 40.4035 72.6522 40.0981C72.1497 39.7828 71.7506 39.3493 71.455 38.7975C71.1693 38.2359 71.0264 37.5856 71.0264 36.8466C71.0264 36.1076 71.1693 35.4573 71.455 34.8956C71.7506 34.334 72.1497 33.9005 72.6522 33.595C73.1645 33.2797 73.7459 33.1221 74.3962 33.1221C74.9381 33.1221 75.4357 33.2354 75.8889 33.462C76.3422 33.6788 76.7215 33.999 77.027 34.4227L75.9776 35.206C75.613 34.6247 75.0859 34.334 74.3962 34.334C73.7951 34.334 73.3025 34.5557 72.9182 34.9991C72.5438 35.4425 72.3566 36.0583 72.3566 36.8466C72.3566 37.625 72.5438 38.2359 72.9182 38.6792C73.3025 39.1226 73.7951 39.3443 74.3962 39.3443C75.0859 39.3443 75.618 39.0586 75.9924 38.4871L77.027 39.2557C76.7215 39.6793 76.3422 40.0045 75.8889 40.2311C75.4357 40.4479 74.9381 40.5563 74.3962 40.5563Z" fill="#180901"/>
<path d="M81.3242 40.5563C80.6739 40.5563 80.0925 40.4035 79.5802 40.0981C79.0776 39.7828 78.6786 39.3443 78.383 38.7827C78.0973 38.2211 77.9544 37.5708 77.9544 36.8318C77.9544 36.0928 78.0973 35.4474 78.383 34.8956C78.6786 34.334 79.0776 33.9005 79.5802 33.595C80.0925 33.2797 80.6739 33.1221 81.3242 33.1221C81.9745 33.1221 82.5509 33.2797 83.0534 33.595C83.5658 33.9005 83.9648 34.334 84.2505 34.8956C84.5461 35.4474 84.6939 36.0928 84.6939 36.8318C84.6939 37.5708 84.5461 38.2211 84.2505 38.7827C83.9648 39.3443 83.5658 39.7828 83.0534 40.0981C82.5509 40.4035 81.9745 40.5563 81.3242 40.5563ZM81.3242 39.3443C81.9252 39.3443 82.4129 39.1226 82.7874 38.6792C83.1716 38.226 83.3638 37.6102 83.3638 36.8318C83.3638 36.0534 83.1716 35.4425 82.7874 34.9991C82.4129 34.5557 81.9252 34.334 81.3242 34.334C80.7231 34.334 80.2305 34.5557 79.8462 34.9991C79.4718 35.4425 79.2846 36.0534 79.2846 36.8318C79.2846 37.6102 79.4718 38.226 79.8462 38.6792C80.2305 39.1226 80.7231 39.3443 81.3242 39.3443Z" fill="#180901"/>
<path d="M86.2914 40.3937V29.7966H87.6216V40.3937H86.2914Z" fill="#180901"/>
<path d="M91.7249 40.5119C91.0057 40.5316 90.4095 40.3691 89.9366 40.0242C89.4735 39.6695 89.2419 39.1621 89.2419 38.5019C89.2419 38.0191 89.3947 37.6003 89.7001 37.2456C90.0154 36.8909 90.4145 36.615 90.8973 36.4179C91.3899 36.211 91.8974 36.1076 92.4196 36.1076C92.725 36.0879 93.0058 36.1174 93.262 36.1963C93.5182 36.2652 93.7399 36.3687 93.9271 36.5066V35.6198C93.9271 35.0681 93.8089 34.7084 93.5724 34.5409C93.3458 34.3734 92.9911 34.2897 92.5083 34.2897C92.0944 34.2897 91.651 34.3636 91.1781 34.5114C90.715 34.6592 90.3209 34.8464 89.9957 35.073L89.375 34.0384C89.7789 33.7822 90.2568 33.5655 90.8086 33.3881C91.3702 33.2108 91.9368 33.1221 92.5083 33.1221C93.4147 33.1221 94.0897 33.3044 94.5331 33.6689C94.9765 34.0236 95.1982 34.6739 95.1982 35.6198V39.1818C95.1982 39.369 95.2474 39.4774 95.346 39.5069C95.4445 39.5365 95.6662 39.5118 96.011 39.433V40.2902C95.883 40.3395 95.7204 40.3888 95.5233 40.438C95.3263 40.4873 95.1243 40.5119 94.9174 40.5119C94.6021 40.5119 94.3754 40.4528 94.2375 40.3346C94.0995 40.2163 94.0059 40.0045 93.9567 39.6991C93.6906 39.9651 93.3556 40.1622 92.9516 40.2902C92.5477 40.4183 92.1388 40.4922 91.7249 40.5119ZM91.7397 39.3443C92.1535 39.3345 92.528 39.2754 92.863 39.167C93.2078 39.0487 93.4788 38.8862 93.6758 38.6792C93.8729 38.4625 93.9616 38.2063 93.9419 37.9107C93.9222 37.6348 93.7793 37.4378 93.5133 37.3195C93.2571 37.2013 92.927 37.152 92.523 37.1717C92.1585 37.1816 91.8235 37.2505 91.518 37.3786C91.2126 37.4969 90.9662 37.6545 90.779 37.8516C90.6017 38.0486 90.513 38.2703 90.513 38.5167C90.5228 38.7926 90.6362 39.0044 90.8529 39.1522C91.0697 39.2901 91.3653 39.3542 91.7397 39.3443Z" fill="#180901"/>
<path d="M97.7426 40.3937V33.2994H99.058V40.3937H97.7426ZM98.3929 31.9693C98.1466 31.9693 97.9347 31.8855 97.7574 31.718C97.5899 31.5406 97.5061 31.3288 97.5061 31.0825C97.5061 30.8361 97.5899 30.6292 97.7574 30.4617C97.9347 30.2844 98.1466 30.1957 98.3929 30.1957C98.6294 30.1957 98.8314 30.2844 98.9989 30.4617C99.1762 30.6292 99.2649 30.8361 99.2649 31.0825C99.2649 31.3288 99.1762 31.5406 98.9989 31.718C98.8314 31.8855 98.6294 31.9693 98.3929 31.9693Z" fill="#180901"/>
<path d="M101.259 40.3937V33.2994H102.471L102.545 34.4079C102.742 34.0236 103.037 33.7133 103.431 33.4768C103.835 33.2403 104.269 33.1221 104.732 33.1221C104.89 33.1221 105.037 33.1319 105.175 33.1516C105.313 33.1713 105.432 33.191 105.53 33.2108V34.4966C105.422 34.467 105.284 34.4424 105.116 34.4227C104.949 34.403 104.766 34.3931 104.569 34.3931C104.018 34.3931 103.55 34.5754 103.165 34.94C102.781 35.2947 102.589 35.7627 102.589 36.3441V40.3937H101.259Z" fill="#180901"/>
<path d="M109.874 40.5563C109.204 40.5563 108.613 40.4134 108.1 40.1277C107.588 39.8419 107.189 39.4232 106.903 38.8714C106.618 38.3098 106.475 37.6348 106.475 36.8466C106.475 36.0879 106.618 35.4326 106.903 34.8809C107.189 34.3192 107.578 33.8857 108.071 33.5802C108.573 33.2748 109.15 33.1221 109.8 33.1221C110.45 33.1221 111.002 33.2846 111.455 33.6098C111.918 33.9251 112.268 34.3488 112.505 34.8809C112.751 35.4129 112.874 35.9943 112.874 36.6249V36.9796H107.775C107.795 37.7678 107.992 38.3689 108.366 38.7827C108.751 39.1867 109.258 39.3887 109.889 39.3887C110.391 39.3887 110.805 39.2655 111.13 39.0192C111.465 38.7729 111.746 38.4034 111.973 37.9107L112.978 38.5758C112.643 39.2655 112.214 39.768 111.692 40.0833C111.18 40.3986 110.574 40.5563 109.874 40.5563ZM107.849 35.9154H111.574C111.495 35.4031 111.298 34.9892 110.982 34.6739C110.667 34.3586 110.268 34.201 109.785 34.201C109.273 34.201 108.849 34.3488 108.514 34.6444C108.179 34.9301 107.958 35.3538 107.849 35.9154Z" fill="#180901"/>
</g>
<defs>
<clipPath id="clip0_5_1421">
<rect width="150" height="42.7265" fill="white" transform="translate(0 0.726562)"/>
</clipPath>
</defs>
</svg>
