<svg width="150" height="43" viewBox="0 0 150 43" fill="none" xmlns="http://www.w3.org/2000/svg">
<g clip-path="url(#clip0_5_862)">
<path d="M6.80853 1.28091C8.77916 1.28091 10.3228 1.77357 11.4395 2.75888C12.5562 3.7442 13.1145 5.12364 13.1145 6.8972C13.1145 7.60335 13.0078 8.30128 12.7943 8.991C12.5808 9.68072 12.236 10.313 11.7597 10.8877C11.2999 11.4461 10.6841 11.8977 9.91227 12.2425C9.15686 12.571 8.22902 12.7352 7.12875 12.7352H4.49304V19.1397H1.93122V1.28091H6.80853ZM7.10412 10.2226C7.77742 10.2226 8.33576 10.1159 8.77916 9.90241C9.23897 9.67251 9.59204 9.38512 9.83837 9.04026C10.1011 8.6954 10.2818 8.33412 10.3803 7.95642C10.4952 7.57871 10.5527 7.24206 10.5527 6.94647C10.5527 6.61803 10.4952 6.27317 10.3803 5.91189C10.2818 5.53419 10.1011 5.18932 9.83837 4.87731C9.59204 4.54887 9.25539 4.28612 8.82842 4.08906C8.40145 3.87557 7.86774 3.76883 7.22729 3.76883H4.49304V10.2226H7.10412Z" fill="#442107"/>
<path d="M16.1582 19.1397V0H18.5969V11.1833L18.5476 10.7646C18.9089 10.0913 19.4426 9.54113 20.1488 9.11416C20.8549 8.67077 21.7006 8.44907 22.686 8.44907C23.6548 8.44907 24.4513 8.73646 25.0753 9.31123C25.6994 9.86957 26.0196 10.6086 26.036 11.5282V19.1397H23.5481V12.3903C23.5317 11.8648 23.3757 11.4379 23.0801 11.1094C22.7845 10.7646 22.3247 10.5839 21.7006 10.5675C20.8303 10.5675 20.0995 10.937 19.5083 11.676C18.9335 12.3985 18.6462 13.3182 18.6462 14.4349V19.1397H16.1582Z" fill="#442107"/>
<path d="M29.9421 8.8432H32.43V19.1397H29.9421V8.8432ZM29.8189 5.14827C29.8189 4.77057 29.9667 4.45034 30.2623 4.18759C30.5743 3.92484 30.911 3.79346 31.2722 3.79346C31.6335 3.79346 31.962 3.92484 32.2576 4.18759C32.5532 4.45034 32.7009 4.77057 32.7009 5.14827C32.7009 5.55882 32.5532 5.88726 32.2576 6.13358C31.962 6.37991 31.6335 6.50308 31.2722 6.50308C30.911 6.50308 30.5743 6.37991 30.2623 6.13358C29.9667 5.88726 29.8189 5.55882 29.8189 5.14827Z" fill="#442107"/>
<path d="M36.3168 0H38.8047V19.1397H36.3168V0Z" fill="#442107"/>
<path d="M42.6915 8.8432H45.1794V19.1397H42.6915V8.8432ZM42.5683 5.14827C42.5683 4.77057 42.7161 4.45034 43.0117 4.18759C43.3237 3.92484 43.6604 3.79346 44.0217 3.79346C44.383 3.79346 44.7114 3.92484 45.007 4.18759C45.3026 4.45034 45.4504 4.77057 45.4504 5.14827C45.4504 5.55882 45.3026 5.88726 45.007 6.13358C44.7114 6.37991 44.383 6.50308 44.0217 6.50308C43.6604 6.50308 43.3237 6.37991 43.0117 6.13358C42.7161 5.88726 42.5683 5.55882 42.5683 5.14827Z" fill="#442107"/>
<path d="M55.2244 19.3861C54.469 19.3861 53.7383 19.2219 53.0321 18.8934C52.3424 18.5486 51.9483 18.1222 51.5541 17.531V16.7257V24.0909H49.0662V8.67077H51.2093L51.4219 10.3574L51.3078 10.4936C51.8005 9.88599 52.4163 9.39333 53.1553 9.01563C53.9107 8.6215 54.7564 8.42444 55.6925 8.42444C56.6614 8.42444 57.5317 8.65435 58.3036 9.11416C59.0754 9.57398 59.683 10.2226 60.1264 11.0602C60.5698 11.8813 60.7915 12.8501 60.7915 13.9668C60.7915 15.0835 60.5451 16.0524 60.0525 16.8735C59.5762 17.6782 58.9194 18.3022 58.0819 18.7456C57.2443 19.1726 56.2919 19.3861 55.2244 19.3861ZM54.7318 17.4154C55.3722 17.4154 55.9552 17.2676 56.4807 16.972C57.0226 16.6765 57.4496 16.2741 57.7616 15.765C58.0901 15.2395 58.2543 14.6483 58.2543 13.9915C58.2543 13.3182 58.1065 12.7188 57.8109 12.1933C57.5153 11.6678 57.113 11.2572 56.6039 10.9616C56.0948 10.666 55.5282 10.5182 54.9042 10.5182C54.0503 10.5182 53.3277 10.7481 52.7365 11.208C52.1617 11.6678 51.7676 12.2754 51.5541 13.0308V14.8783C51.6855 15.6172 52.0468 16.2249 52.638 16.7011C53.2292 17.1773 53.9271 17.4154 54.7318 17.4154Z" fill="#442107"/>
<path d="M69.9464 19.3861C69.191 19.3861 68.4602 19.2219 67.7541 18.8934C67.0644 18.5486 66.6703 18.2323 66.2761 17.6412V16.7257V24.0909H63.7882V8.67077H65.9313L66.1417 10.36L66.0298 10.4936C66.5225 9.88599 67.1383 9.39333 67.8773 9.01563C68.6327 8.6215 69.4784 8.42444 70.4145 8.42444C71.3833 8.42444 72.2537 8.65435 73.0255 9.11416C73.7974 9.57398 74.405 10.2226 74.8484 11.0602C75.2918 11.8813 75.5135 12.8501 75.5135 13.9668C75.5135 15.0835 75.2671 16.0524 74.7745 16.8735C74.2982 17.6782 73.6414 18.3022 72.8038 18.7456C71.9663 19.1726 71.0139 19.3861 69.9464 19.3861ZM69.4538 17.4154C70.0942 17.4154 70.6772 17.2676 71.2027 16.972C71.7446 16.6765 72.1716 16.2741 72.4836 15.765C72.812 15.2395 72.9763 14.6483 72.9763 13.9915C72.9763 13.3182 72.8285 12.7188 72.5329 12.1933C72.2373 11.6678 71.835 11.2572 71.3259 10.9616C70.8168 10.666 70.2502 10.5182 69.6262 10.5182C68.7723 10.5182 68.0497 10.7481 67.4585 11.208C66.8837 11.6678 66.4896 12.2754 66.2761 13.0308V14.8783C66.4075 15.6172 66.7688 16.2249 67.36 16.7011C67.9512 17.1773 68.6491 17.4154 69.4538 17.4154Z" fill="#442107"/>
<path d="M83.3382 19.3861C82.1559 19.3861 81.1377 19.1562 80.2838 18.6964C79.4298 18.2201 78.7729 17.5714 78.3131 16.7504C77.8533 15.9128 77.6234 14.9686 77.6234 13.9176C77.6234 12.8994 77.878 11.9798 78.387 11.1587C78.9125 10.3212 79.6105 9.65609 80.4808 9.16343C81.3512 8.67077 82.3201 8.42444 83.3875 8.42444C84.767 8.42444 85.9083 8.82678 86.8115 9.63145C87.7311 10.4197 88.3469 11.5364 88.659 12.9815L80.6109 15.7845C80.6109 15.7845 80.4029 15.4341 80.2914 15.1096C80.1935 14.8245 80.1216 14.3557 80.1216 14.3557L86.4174 11.9962L85.8429 12.2115C85.6459 11.686 85.391 11.364 84.964 10.9863C84.537 10.5921 83.9541 10.3951 83.2151 10.3951C82.2954 10.3951 81.54 10.7153 80.9489 11.3558C80.3741 11.9798 80.0867 12.7845 80.0867 13.7698C80.0867 14.8208 80.3987 15.6665 81.0228 16.307C81.6468 16.9474 82.435 17.2676 83.3875 17.2676C83.8309 17.2676 84.2579 17.1937 84.6684 17.0459C85.079 16.8817 85.4649 16.6682 85.8262 16.4055L86.9593 18.253C86.4338 18.5978 85.8508 18.877 85.2103 19.0905C84.5863 19.2875 83.9623 19.3861 83.3382 19.3861Z" fill="#442107"/>
<path d="M93.3952 19.1397L101.253 0.541922H101.401L109.259 19.1397H106.278L101.253 6.33871L95.957 19.1397H93.3952ZM98.729 12.4396H103.648L104.518 14.6566H97.8118L98.729 12.4396Z" fill="#442107"/>
<path d="M116.463 19.3861C115.28 19.3861 114.262 19.1562 113.408 18.6964C112.554 18.2201 111.897 17.5714 111.438 16.7504C110.978 15.9128 110.748 14.9686 110.748 13.9176C110.748 12.8994 111.002 11.9798 111.512 11.1587C112.037 10.3212 112.735 9.65609 113.605 9.16343C114.476 8.67077 115.445 8.42444 116.512 8.42444C117.891 8.42444 119.033 8.82678 119.936 9.63145C120.856 10.4197 121.471 11.5364 121.783 12.9815L113.729 15.7738C113.729 15.7738 113.518 15.4057 113.422 15.1268C113.322 14.8357 113.243 14.328 113.243 14.328L118.972 12.2099L119.025 12.3411C118.827 11.8156 118.515 11.364 118.088 10.9863C117.662 10.5921 117.079 10.3951 116.34 10.3951C115.42 10.3951 114.665 10.7153 114.073 11.3558C113.499 11.9798 113.211 12.7845 113.211 13.7698C113.211 14.8208 113.523 15.6665 114.147 16.307C114.771 16.9474 115.56 17.2676 116.512 17.2676C116.955 17.2676 117.382 17.1937 117.793 17.0459C118.203 16.8817 118.589 16.6682 118.951 16.4055L120.084 18.253C119.558 18.5978 118.975 18.877 118.335 19.0905C117.711 19.2875 117.087 19.3861 116.463 19.3861Z" fill="#442107"/>
<path d="M126.794 8.8432L126.983 11.3132L126.941 11.405C127.22 10.781 127.606 10.2473 128.099 9.80388C128.608 9.36049 129.134 9.02384 129.676 8.79393C130.234 8.54761 130.702 8.42444 131.08 8.42444L130.956 10.8877C130.185 10.8385 129.503 10.9863 128.912 11.3311C128.337 11.676 127.886 12.1358 127.557 12.7106C127.229 13.2853 127.064 13.9011 127.064 14.558V19.1397H124.577V8.8432H126.794Z" fill="#442107"/>
<path d="M134.944 4.33539H137.456V8.86783H140.215V10.8138H137.456V19.1397H134.944V10.8138H133.121V8.86783H134.944V4.33539Z" fill="#442107"/>
<path d="M145.936 19.3614C145.18 19.3614 144.458 19.2301 143.768 18.9673C143.078 18.6881 142.495 18.294 142.019 17.7849L143.078 16.3562C143.505 16.7668 143.949 17.0788 144.408 17.2923C144.885 17.5058 145.328 17.6125 145.739 17.6125C146.215 17.6125 146.633 17.5222 146.995 17.3415C147.356 17.1445 147.537 16.8243 147.537 16.3809C147.537 16.0196 147.414 15.7404 147.167 15.5433C146.937 15.3463 146.642 15.1821 146.28 15.0507C145.919 14.9193 145.533 14.7961 145.123 14.6812C144.269 14.402 143.612 14.0079 143.152 13.4988C142.709 12.9733 142.487 12.3575 142.487 11.6513C142.487 11.1094 142.618 10.6003 142.881 10.1241C143.16 9.63145 143.579 9.23733 144.137 8.94173C144.696 8.62972 145.385 8.47371 146.207 8.47371C146.929 8.47371 147.578 8.56403 148.153 8.74467C148.727 8.90889 149.261 9.19627 149.754 9.60682L148.793 11.1094C148.497 10.8138 148.144 10.5921 147.734 10.4443C147.34 10.2801 146.978 10.1898 146.65 10.1734C146.207 10.1734 145.821 10.2801 145.492 10.4936C145.164 10.6907 145 10.9616 145 11.3065C145 11.6513 145.114 11.9305 145.344 12.144C145.574 12.3411 145.87 12.5053 146.231 12.6367C146.609 12.7516 146.987 12.8748 147.364 13.0062C148.12 13.2525 148.744 13.5891 149.236 14.0161C149.745 14.4431 150 15.0671 150 15.8882C150 16.5122 149.852 17.087 149.557 17.6125C149.261 18.138 148.809 18.565 148.202 18.8934C147.611 19.2054 146.855 19.3614 145.936 19.3614Z" fill="#442107"/>
<path d="M4.78863 39.8888C3.85258 39.8888 3.02492 39.6671 2.30564 39.2237C1.58636 38.7803 1.0198 38.1547 0.605969 37.3467C0.20199 36.5388 0 35.5879 0 34.4942C0 33.4005 0.20199 32.4497 0.605969 31.6417C1.0198 30.8239 1.58636 30.1933 2.30564 29.7499C3.02492 29.2967 3.85258 29.0701 4.78863 29.0701C5.636 29.0701 6.39469 29.2573 7.06471 29.6317C7.73472 29.9963 8.28157 30.5136 8.70526 31.1836L7.5081 31.893C7.20265 31.42 6.81838 31.0555 6.35528 30.7993C5.89218 30.5431 5.36997 30.415 4.78863 30.415C4.11862 30.415 3.52743 30.5825 3.01506 30.9175C2.51255 31.2525 2.11843 31.7255 1.83269 32.3364C1.54694 32.9374 1.40407 33.6567 1.40407 34.4942C1.40407 35.3219 1.54694 36.0412 1.83269 36.6521C2.11843 37.2531 2.51255 37.7211 3.01506 38.0561C3.52743 38.3912 4.11862 38.5587 4.78863 38.5587C5.36997 38.5587 5.89218 38.4306 6.35528 38.1744C6.81838 37.9182 7.20265 37.5536 7.5081 37.0807L8.70526 37.7901C8.28157 38.4503 7.73472 38.9676 7.06471 39.342C6.39469 39.7065 5.636 39.8888 4.78863 39.8888Z" fill="#180901"/>
<path d="M13.2855 39.8297C12.6352 39.8297 12.0538 39.677 11.5415 39.3715C11.039 39.0562 10.6399 38.6178 10.3443 38.0561C10.0586 37.4945 9.91569 36.8442 9.91569 36.1052C9.91569 35.3662 10.0586 34.7209 10.3443 34.1691C10.6399 33.6074 11.039 33.1739 11.5415 32.8685C12.0538 32.5532 12.6352 32.3955 13.2855 32.3955C13.9358 32.3955 14.5122 32.5532 15.0147 32.8685C15.5271 33.1739 15.9261 33.6074 16.2119 34.1691C16.5075 34.7209 16.6552 35.3662 16.6552 36.1052C16.6552 36.8442 16.5075 37.4945 16.2119 38.0561C15.9261 38.6178 15.5271 39.0562 15.0147 39.3715C14.5122 39.677 13.9358 39.8297 13.2855 39.8297ZM13.2855 38.6178C13.8865 38.6178 14.3742 38.3961 14.7487 37.9527C15.1329 37.4994 15.3251 36.8836 15.3251 36.1052C15.3251 35.3268 15.1329 34.7159 14.7487 34.2725C14.3742 33.8291 13.8865 33.6074 13.2855 33.6074C12.6844 33.6074 12.1918 33.8291 11.8075 34.2725C11.4331 34.7159 11.2459 35.3268 11.2459 36.1052C11.2459 36.8836 11.4331 37.4994 11.8075 37.9527C12.1918 38.3961 12.6844 38.6178 13.2855 38.6178Z" fill="#180901"/>
<path d="M20.2367 39.7854C19.5174 39.8051 18.9213 39.6425 18.4483 39.2976C17.9852 38.9429 17.7537 38.4355 17.7537 37.7753C17.7537 37.2925 17.9064 36.8738 18.2119 36.5191C18.5272 36.1643 18.9262 35.8885 19.409 35.6914C19.9017 35.4845 20.4091 35.381 20.9313 35.381C21.2368 35.3613 21.5176 35.3909 21.7738 35.4697C22.0299 35.5387 22.2516 35.6421 22.4389 35.7801V34.8933C22.4389 34.3415 22.3206 33.9819 22.0841 33.8144C21.8575 33.6469 21.5028 33.5631 21.02 33.5631C20.6062 33.5631 20.1628 33.637 19.6898 33.7848C19.2267 33.9326 18.8326 34.1198 18.5074 34.3464L17.8867 33.3119C18.2907 33.0557 18.7686 32.8389 19.3203 32.6615C19.882 32.4842 20.4485 32.3955 21.02 32.3955C21.9265 32.3955 22.6014 32.5778 23.0448 32.9424C23.4882 33.2971 23.7099 33.9474 23.7099 34.8933V38.4552C23.7099 38.6424 23.7592 38.7508 23.8577 38.7803C23.9562 38.8099 24.1779 38.7853 24.5228 38.7065V39.5637C24.3947 39.6129 24.2321 39.6622 24.0351 39.7115C23.838 39.7607 23.636 39.7854 23.4291 39.7854C23.1138 39.7854 22.8872 39.7262 22.7492 39.608C22.6113 39.4898 22.5177 39.2779 22.4684 38.9725C22.2024 39.2385 21.8674 39.4356 21.4634 39.5637C21.0594 39.6918 20.6505 39.7657 20.2367 39.7854ZM20.2515 38.6178C20.6653 38.6079 21.0397 38.5488 21.3747 38.4404C21.7196 38.3222 21.9905 38.1596 22.1876 37.9527C22.3847 37.7359 22.4733 37.4797 22.4536 37.1841C22.4339 36.9083 22.2911 36.7112 22.025 36.593C21.7688 36.4747 21.4388 36.4254 21.0348 36.4452C20.6702 36.455 20.3352 36.524 20.0298 36.6521C19.7243 36.7703 19.478 36.928 19.2908 37.125C19.1134 37.3221 19.0247 37.5438 19.0247 37.7901C19.0346 38.066 19.1479 38.2778 19.3647 38.4256C19.5814 38.5636 19.877 38.6276 20.2515 38.6178Z" fill="#180901"/>
<path d="M28.7147 39.8297C28.0644 39.8297 27.483 39.677 26.9707 39.3715C26.4682 39.0562 26.0691 38.6227 25.7735 38.0709C25.4878 37.5093 25.3449 36.859 25.3449 36.12C25.3449 35.381 25.4878 34.7307 25.7735 34.1691C26.0691 33.6074 26.4682 33.1739 26.9707 32.8685C27.483 32.5532 28.0644 32.3955 28.7147 32.3955C29.2566 32.3955 29.7542 32.5088 30.2074 32.7354C30.6607 32.9522 31.04 33.2724 31.3455 33.6961L30.2961 34.4795C29.9316 33.8981 29.4044 33.6074 28.7147 33.6074C28.1137 33.6074 27.621 33.8291 27.2367 34.2725C26.8623 34.7159 26.6751 35.3317 26.6751 36.12C26.6751 36.8984 26.8623 37.5093 27.2367 37.9527C27.621 38.3961 28.1137 38.6178 28.7147 38.6178C29.4044 38.6178 29.9365 38.332 30.3109 37.7605L31.3455 38.5291C31.04 38.9528 30.6607 39.2779 30.2074 39.5046C29.7542 39.7213 29.2566 39.8297 28.7147 39.8297Z" fill="#180901"/>
<path d="M32.9459 39.6671V29.0701H34.276V33.4892C34.4534 33.1936 34.7145 32.9374 35.0594 32.7207C35.4042 32.5039 35.8033 32.3955 36.2565 32.3955C37.0053 32.3955 37.6113 32.6369 38.0744 33.1197C38.5474 33.5927 38.7838 34.2824 38.7838 35.1889V39.6671H37.4684V35.4697C37.4684 34.8489 37.3305 34.3858 37.0546 34.0804C36.7787 33.7651 36.4191 33.6074 35.9757 33.6074C35.4732 33.6074 35.0643 33.775 34.749 34.11C34.4337 34.4351 34.276 34.8736 34.276 35.4254V39.6671H32.9459Z" fill="#180901"/>
<path d="M41.0196 39.6671V32.5729H42.335V39.6671H41.0196ZM41.6699 31.2427C41.4236 31.2427 41.2118 31.1589 41.0344 30.9914C40.8669 30.8141 40.7831 30.6022 40.7831 30.3559C40.7831 30.1096 40.8669 29.9027 41.0344 29.7352C41.2118 29.5578 41.4236 29.4691 41.6699 29.4691C41.9064 29.4691 42.1084 29.5578 42.2759 29.7352C42.4533 29.9027 42.5419 30.1096 42.5419 30.3559C42.5419 30.6022 42.4533 30.8141 42.2759 30.9914C42.1084 31.1589 41.9064 31.2427 41.6699 31.2427Z" fill="#180901"/>
<path d="M44.5358 39.6671V32.5729H45.733L45.8069 33.4892C46.0138 33.1936 46.2897 32.9374 46.6345 32.7207C46.9892 32.5039 47.3932 32.3955 47.8465 32.3955C48.5953 32.3955 49.2013 32.6369 49.6644 33.1197C50.1373 33.5927 50.3738 34.2824 50.3738 35.1889V39.6671H49.0584V35.4697C49.0584 34.8489 48.9205 34.3858 48.6446 34.0804C48.3687 33.7651 48.009 33.6074 47.5657 33.6074C47.0631 33.6074 46.6542 33.775 46.3389 34.11C46.0236 34.4351 45.866 34.8736 45.866 35.4254V39.6671H44.5358Z" fill="#180901"/>
<path d="M55.2256 42.7265C53.8462 42.7265 52.8165 42.1846 52.1366 41.1008L53.2008 40.3766C53.6442 41.1254 54.3191 41.4998 55.2256 41.4998C55.866 41.4998 56.3489 41.2929 56.674 40.8791C56.9992 40.4751 57.1617 39.8445 57.1617 38.9873V38.2039C56.9253 38.4995 56.6346 38.7311 56.2897 38.8986C55.9547 39.0661 55.5803 39.1498 55.1665 39.1498C54.5556 39.1498 54.0087 39.0168 53.5259 38.7508C53.0431 38.4848 52.6638 38.1005 52.3879 37.598C52.1218 37.0856 51.9888 36.4747 51.9888 35.7653C51.9888 35.046 52.1218 34.44 52.3879 33.9474C52.6638 33.4449 53.0431 33.0606 53.5259 32.7946C54.0087 32.5285 54.5556 32.3955 55.1665 32.3955C55.6 32.3955 55.9941 32.4891 56.3489 32.6763C56.7134 32.8537 57.0189 33.1049 57.2652 33.4301L57.3095 32.5729H58.4771V38.9873C58.4771 40.2091 58.1963 41.1353 57.6347 41.7659C57.0829 42.4063 56.2799 42.7265 55.2256 42.7265ZM55.2551 37.9822C55.8365 37.9822 56.3144 37.7803 56.6888 37.3763C57.0632 36.9723 57.2504 36.4353 57.2504 35.7653C57.2504 35.0953 57.0632 34.5632 56.6888 34.1691C56.3144 33.7749 55.8365 33.5779 55.2551 33.5779C54.6837 33.5779 54.2156 33.7749 53.8511 34.1691C53.4964 34.5632 53.319 35.0953 53.319 35.7653C53.319 36.4353 53.4964 36.9723 53.8511 37.3763C54.2156 37.7803 54.6837 37.9822 55.2551 37.9822Z" fill="#180901"/>
<path d="M67.1103 39.8149C66.5093 39.8149 65.9477 39.7065 65.4255 39.4898C64.9032 39.273 64.4598 38.938 64.0953 38.4848L64.9673 37.6275C65.4994 38.3074 66.2334 38.6473 67.1695 38.6473C67.603 38.6473 67.9479 38.5685 68.204 38.4109C68.4602 38.2532 68.5883 37.9921 68.5883 37.6275C68.5883 37.3319 68.4553 37.1152 68.1893 36.9772C67.9232 36.8294 67.4503 36.6915 66.7704 36.5634C66.327 36.4747 65.928 36.3565 65.5732 36.2087C65.2284 36.0609 64.9525 35.849 64.7456 35.5732C64.5387 35.2874 64.4352 34.9179 64.4352 34.4647C64.4352 34.0311 64.5534 33.6616 64.7899 33.3562C65.0264 33.0409 65.3368 32.7995 65.721 32.632C66.1152 32.4645 66.5487 32.3807 67.0217 32.3807C68.1745 32.3807 69.0514 32.7502 69.6525 33.4892L68.8691 34.3908C68.6524 34.105 68.3863 33.8981 68.071 33.77C67.7557 33.6321 67.4109 33.5631 67.0364 33.5631C66.6128 33.5631 66.2975 33.6518 66.0905 33.8291C65.8836 33.9966 65.7802 34.1986 65.7802 34.4351C65.7802 34.711 65.8984 34.913 66.1349 35.0411C66.3714 35.1692 66.8 35.3022 67.4207 35.4401C67.9134 35.5485 68.3469 35.6914 68.7213 35.8687C69.1056 36.0461 69.4012 36.2776 69.6081 36.5634C69.8249 36.8491 69.9333 37.2186 69.9333 37.6719C69.9333 38.3517 69.6722 38.8789 69.1499 39.2533C68.6376 39.6277 67.9577 39.8149 67.1103 39.8149Z" fill="#180901"/>
<path d="M74.3962 39.8297C73.7459 39.8297 73.1645 39.677 72.6522 39.3715C72.1497 39.0562 71.7506 38.6227 71.455 38.0709C71.1693 37.5093 71.0264 36.859 71.0264 36.12C71.0264 35.381 71.1693 34.7307 71.455 34.1691C71.7506 33.6074 72.1497 33.1739 72.6522 32.8685C73.1645 32.5532 73.7459 32.3955 74.3962 32.3955C74.9381 32.3955 75.4357 32.5088 75.8889 32.7354C76.3422 32.9522 76.7215 33.2724 77.027 33.6961L75.9776 34.4795C75.613 33.8981 75.0859 33.6074 74.3962 33.6074C73.7951 33.6074 73.3025 33.8291 72.9182 34.2725C72.5438 34.7159 72.3566 35.3317 72.3566 36.12C72.3566 36.8984 72.5438 37.5093 72.9182 37.9527C73.3025 38.3961 73.7951 38.6178 74.3962 38.6178C75.0859 38.6178 75.618 38.332 75.9924 37.7605L77.027 38.5291C76.7215 38.9528 76.3422 39.2779 75.8889 39.5046C75.4357 39.7213 74.9381 39.8297 74.3962 39.8297Z" fill="#180901"/>
<path d="M81.3242 39.8297C80.6739 39.8297 80.0925 39.677 79.5802 39.3715C79.0776 39.0562 78.6786 38.6178 78.383 38.0561C78.0973 37.4945 77.9544 36.8442 77.9544 36.1052C77.9544 35.3662 78.0973 34.7209 78.383 34.1691C78.6786 33.6074 79.0776 33.1739 79.5802 32.8685C80.0925 32.5532 80.6739 32.3955 81.3242 32.3955C81.9745 32.3955 82.5509 32.5532 83.0534 32.8685C83.5658 33.1739 83.9648 33.6074 84.2505 34.1691C84.5461 34.7209 84.6939 35.3662 84.6939 36.1052C84.6939 36.8442 84.5461 37.4945 84.2505 38.0561C83.9648 38.6178 83.5658 39.0562 83.0534 39.3715C82.5509 39.677 81.9745 39.8297 81.3242 39.8297ZM81.3242 38.6178C81.9252 38.6178 82.4129 38.3961 82.7874 37.9527C83.1716 37.4994 83.3638 36.8836 83.3638 36.1052C83.3638 35.3268 83.1716 34.7159 82.7874 34.2725C82.4129 33.8291 81.9252 33.6074 81.3242 33.6074C80.7231 33.6074 80.2305 33.8291 79.8462 34.2725C79.4718 34.7159 79.2846 35.3268 79.2846 36.1052C79.2846 36.8836 79.4718 37.4994 79.8462 37.9527C80.2305 38.3961 80.7231 38.6178 81.3242 38.6178Z" fill="#180901"/>
<path d="M86.2914 39.6671V29.0701H87.6216V39.6671H86.2914Z" fill="#180901"/>
<path d="M91.7249 39.7854C91.0056 39.8051 90.4095 39.6425 89.9366 39.2976C89.4735 38.9429 89.2419 38.4355 89.2419 37.7753C89.2419 37.2925 89.3947 36.8738 89.7001 36.5191C90.0154 36.1643 90.4145 35.8885 90.8973 35.6914C91.3899 35.4845 91.8974 35.381 92.4196 35.381C92.725 35.3613 93.0058 35.3909 93.262 35.4697C93.5182 35.5387 93.7399 35.6421 93.9271 35.7801V34.8933C93.9271 34.3415 93.8089 33.9819 93.5724 33.8144C93.3458 33.6469 92.9911 33.5631 92.5083 33.5631C92.0944 33.5631 91.651 33.637 91.1781 33.7848C90.715 33.9326 90.3209 34.1198 89.9957 34.3464L89.375 33.3119C89.7789 33.0557 90.2568 32.8389 90.8086 32.6615C91.3702 32.4842 91.9368 32.3955 92.5083 32.3955C93.4147 32.3955 94.0897 32.5778 94.5331 32.9424C94.9765 33.2971 95.1982 33.9474 95.1982 34.8933V38.4552C95.1982 38.6424 95.2474 38.7508 95.346 38.7803C95.4445 38.8099 95.6662 38.7853 96.011 38.7065V39.5637C95.883 39.6129 95.7204 39.6622 95.5233 39.7115C95.3263 39.7607 95.1243 39.7854 94.9174 39.7854C94.602 39.7854 94.3754 39.7262 94.2375 39.608C94.0995 39.4898 94.0059 39.2779 93.9567 38.9725C93.6906 39.2385 93.3556 39.4356 92.9516 39.5637C92.5477 39.6918 92.1388 39.7657 91.7249 39.7854ZM91.7397 38.6178C92.1535 38.6079 92.528 38.5488 92.863 38.4404C93.2078 38.3222 93.4788 38.1596 93.6758 37.9527C93.8729 37.7359 93.9616 37.4797 93.9419 37.1841C93.9222 36.9083 93.7793 36.7112 93.5133 36.593C93.2571 36.4747 92.927 36.4254 92.523 36.4452C92.1585 36.455 91.8235 36.524 91.518 36.6521C91.2126 36.7703 90.9662 36.928 90.779 37.125C90.6017 37.3221 90.513 37.5438 90.513 37.7901C90.5228 38.066 90.6362 38.2778 90.8529 38.4256C91.0697 38.5636 91.3653 38.6276 91.7397 38.6178Z" fill="#180901"/>
<path d="M97.7426 39.6671V32.5729H99.058V39.6671H97.7426ZM98.3929 31.2427C98.1466 31.2427 97.9347 31.1589 97.7574 30.9914C97.5899 30.8141 97.5061 30.6022 97.5061 30.3559C97.5061 30.1096 97.5899 29.9027 97.7574 29.7352C97.9347 29.5578 98.1466 29.4691 98.3929 29.4691C98.6294 29.4691 98.8314 29.5578 98.9989 29.7352C99.1762 29.9027 99.2649 30.1096 99.2649 30.3559C99.2649 30.6022 99.1762 30.8141 98.9989 30.9914C98.8314 31.1589 98.6294 31.2427 98.3929 31.2427Z" fill="#180901"/>
<path d="M101.259 39.6671V32.5729H102.471L102.545 33.6813C102.742 33.2971 103.037 32.9867 103.431 32.7502C103.835 32.5137 104.269 32.3955 104.732 32.3955C104.89 32.3955 105.037 32.4054 105.175 32.4251C105.313 32.4448 105.432 32.4645 105.53 32.4842V33.77C105.422 33.7405 105.284 33.7158 105.116 33.6961C104.949 33.6764 104.766 33.6666 104.569 33.6666C104.018 33.6666 103.55 33.8489 103.165 34.2134C102.781 34.5681 102.589 35.0362 102.589 35.6175V39.6671H101.259Z" fill="#180901"/>
<path d="M109.874 39.8297C109.204 39.8297 108.613 39.6868 108.1 39.4011C107.588 39.1154 107.189 38.6966 106.903 38.1448C106.618 37.5832 106.475 36.9083 106.475 36.12C106.475 35.3613 106.618 34.7061 106.903 34.1543C107.189 33.5927 107.578 33.1591 108.071 32.8537C108.573 32.5482 109.15 32.3955 109.8 32.3955C110.45 32.3955 111.002 32.5581 111.455 32.8832C111.918 33.1985 112.268 33.6222 112.505 34.1543C112.751 34.6864 112.874 35.2677 112.874 35.8983V36.253H107.775C107.795 37.0413 107.992 37.6423 108.366 38.0561C108.751 38.4601 109.258 38.6621 109.889 38.6621C110.391 38.6621 110.805 38.5389 111.13 38.2926C111.465 38.0463 111.746 37.6768 111.973 37.1841L112.978 37.8492C112.643 38.5389 112.214 39.0415 111.692 39.3568C111.18 39.6721 110.574 39.8297 109.874 39.8297ZM107.849 35.1889H111.574C111.495 34.6765 111.298 34.2627 110.982 33.9474C110.667 33.6321 110.268 33.4744 109.785 33.4744C109.273 33.4744 108.849 33.6222 108.514 33.9178C108.179 34.2036 107.958 34.6272 107.849 35.1889Z" fill="#180901"/>
</g>
<defs>
<clipPath id="clip0_5_862">
<rect width="150" height="42.7265" fill="white"/>
</clipPath>
</defs>
</svg>
