<svg xmlns="http://www.w3.org/2000/svg" width="32" height="32" viewBox="0 0 32 32" fill="none">
<path d="M0.0872341 26.0233C0.00660841 26.555 0.433917 27.1616 1.02011 27.3481C1.32701 27.4458 1.64513 27.502 1.96633 27.5153C2.23449 27.5254 2.50264 27.5374 2.7708 27.5498C3.39846 27.5781 4.04118 27.6073 4.68368 27.6073C4.94183 27.6073 5.19994 27.6026 5.45665 27.5911C6.70644 27.5363 7.97538 27.4546 9.20246 27.3755C10.6723 27.2811 12.192 27.1837 13.6871 27.1307C17.5793 26.9933 21.4863 26.4466 25.2648 25.9179L25.755 25.8493C26.6408 25.7257 27.5569 25.5976 28.45 25.4167C28.4895 25.4088 28.5303 25.4017 28.5717 25.3946C28.9305 25.3322 29.4726 25.2382 29.6122 24.3968C29.6197 24.3512 29.6106 24.3045 29.5864 24.2654C29.5623 24.2263 29.5249 24.1977 29.4813 24.1851C29.3875 24.1577 29.3006 24.1276 29.2182 24.0989C29.0494 24.0312 28.8723 23.987 28.6919 23.9679L28.1225 23.9336C26.8089 23.8543 25.4506 23.7726 24.1119 23.736C20.3186 23.6302 16.5224 23.7309 12.7395 24.0378C10.3025 24.2386 7.82111 24.4029 5.42129 24.5619C4.20565 24.6424 2.98994 24.7245 1.7743 24.8083C1.51469 24.82 1.25763 24.8652 1.0092 24.943C0.770278 25.0138 0.556379 25.1533 0.392925 25.3449C0.229473 25.5364 0.123317 25.7719 0.0872341 26.0233Z" fill="#4F3B31"/>
<path d="M0.737859 16.4742C0.731935 16.6731 0.781372 16.8698 0.880406 17.0413C0.979438 17.2128 1.12399 17.3521 1.29739 17.4431C1.59193 17.5908 1.91205 17.6779 2.23952 17.6995C2.67376 17.7267 3.12943 17.7501 3.59209 17.7501C3.81841 17.7501 4.04624 17.7445 4.27399 17.7309C5.63265 17.6514 7.01167 17.5572 8.34602 17.4663C10.844 17.2962 13.4269 17.1195 15.9688 17.0306C19.429 16.909 22.9079 16.4751 26.2722 16.0554C27.1543 15.9459 28.0356 15.8378 28.9166 15.731C28.9867 15.7228 29.0578 15.7161 29.1301 15.7093C29.6456 15.661 30.2876 15.6007 30.9428 14.8843C30.963 14.862 30.9778 14.8351 30.9855 14.8059C30.9934 14.7766 30.9943 14.7459 30.9878 14.7162C30.9816 14.6866 30.9682 14.659 30.949 14.6357C30.9301 14.6125 30.9058 14.5943 30.8783 14.5827C29.6814 14.08 28.6463 14.0111 27.6035 13.9803L26.6934 13.9535C23.8109 13.8678 20.8308 13.7793 17.8876 13.8949C12.9403 14.0894 8.0954 14.5811 2.72887 15.1561C2.2244 15.2123 1.7327 15.3546 1.27435 15.577C1.11113 15.6596 0.974118 15.7877 0.879183 15.9465C0.784249 16.1052 0.735267 16.2882 0.737859 16.4742Z" fill="#4F3B31"/>
<path d="M1.75611 6.95761C2.10502 7.13139 2.4824 7.23755 2.86924 7.27068C3.08139 7.28675 3.29365 7.3033 3.50603 7.32033C4.48623 7.39773 5.49721 7.47765 6.49869 7.47765C6.5761 7.47765 6.65365 7.47768 6.73105 7.47622C8.62424 7.45194 10.5484 7.40684 12.4092 7.36321C14.8781 7.30553 17.4311 7.24582 19.9414 7.23396C23.5346 7.21698 27.1444 6.7975 30.6356 6.3919L30.7475 6.37898C30.9676 6.33592 31.1778 6.25142 31.3677 6.12981C31.4948 6.06118 31.6389 5.98377 31.8159 5.90017C31.8475 5.88532 31.8743 5.86161 31.8933 5.8318C31.9122 5.802 31.9224 5.76733 31.9228 5.7318C31.9233 5.69627 31.9138 5.66136 31.8956 5.63113C31.8772 5.60089 31.8509 5.57655 31.8196 5.56098C31.6373 5.46971 31.4839 5.3821 31.3485 5.30397C31.1362 5.15805 30.8977 5.0566 30.6465 5.00552L29.9606 4.9212C28.628 4.75691 27.25 4.58623 25.8866 4.52818C18.5403 4.21494 11.0809 4.50903 3.86732 4.79361L2.57272 4.84455C2.37693 4.85242 2.18242 4.8806 1.99223 4.92869C1.77466 4.97053 1.57588 5.08217 1.42476 5.24737C1.27364 5.41258 1.17803 5.62273 1.15198 5.84722C1.11846 6.07444 1.15958 6.3066 1.26886 6.50747C1.37813 6.70833 1.54948 6.86661 1.75611 6.95761Z" fill="#4F3B31"/>
</svg>