<svg width="24" height="25" viewBox="0 0 24 25" fill="none" xmlns="http://www.w3.org/2000/svg">
<g clip-path="url(#clip0_1_6663)">
<path d="M11.6766 17.6351C10.9594 17.6351 9.91301 17.302 8.93091 16.7587C8.38792 16.4579 7.91942 16.062 7.63942 15.4888C7.55336 15.3422 7.50211 15.1778 7.48963 15.0082C7.49414 14.8443 7.49989 14.6912 7.65941 14.6227C7.7402 14.5945 7.8273 14.5898 7.91068 14.609C7.99406 14.6282 8.07032 14.6705 8.13068 14.7312C8.3238 14.9176 8.42881 15.2047 8.63617 15.3653C10.0451 16.4566 11.6039 16.9343 13.3662 16.3889C14.1874 16.1349 14.7571 15.558 15.1879 14.8317C15.2918 14.6566 15.3664 14.4343 15.5196 14.3262C15.6913 14.2052 15.9831 14.087 16.1377 14.1564C16.2923 14.2259 16.4173 14.5278 16.4196 14.7293C16.4219 14.9483 16.2983 15.1874 16.1775 15.386C15.2483 16.9134 13.878 17.653 11.6766 17.6351Z" fill="#4f3b31"/>
<path d="M7.30828 8.14359C8.48011 8.11757 9.19245 8.50689 9.78759 9.14322C9.89343 9.25391 9.9762 9.38453 10.0311 9.52751C10.1698 9.91426 9.89342 10.2478 9.50052 10.1244C9.21684 10.0177 8.95718 9.85576 8.73664 9.64789C8.2 9.18348 7.61624 9.06002 6.93238 9.24709C5.92682 9.52217 5.12924 10.0289 4.71944 11.0354C4.62611 11.2645 4.47561 11.4768 4.18045 11.379C3.86541 11.2746 3.82914 10.9756 3.93292 10.7438C4.13844 10.2851 4.34959 9.80125 4.67518 9.42966C5.43178 8.56671 6.46664 8.2401 7.30828 8.14359Z" fill="#4f3b31"/>
<path d="M19.447 9.43491C19.3938 9.50539 19.3065 9.73662 19.1601 9.78396C19.0653 9.80197 18.9677 9.79902 18.8741 9.7753C18.7805 9.75159 18.6933 9.7077 18.6185 9.64669C18.4477 9.49691 18.3507 9.259 18.2347 9.05184C18.1632 8.90499 18.0472 8.78441 17.9033 8.70717C17.7593 8.62994 17.5947 8.59998 17.4328 8.62155C16.5388 8.6986 15.7365 8.95514 15.1594 9.71205C15.0717 9.827 14.7636 9.82944 14.7059 9.77668C14.5829 9.66398 14.4688 9.52055 14.5121 9.37846C14.597 9.12148 14.7428 8.88886 14.937 8.70044C15.71 7.94374 16.671 7.6411 17.7332 7.67041C18.5363 7.69212 19.417 8.561 19.447 9.43491Z" fill="#4f3b31"/>
<path d="M6.61764 12.5064C6.78515 12.5856 6.96864 12.8214 6.97622 12.9945C6.96756 13.099 6.9347 13.2 6.88026 13.2897C6.82581 13.3793 6.75127 13.455 6.66251 13.5109C6.02885 13.8355 5.34488 13.9652 4.64043 13.771C4.37836 13.6993 4.12459 13.567 4.10482 13.2318C4.08566 12.9073 4.28728 12.7133 4.54976 12.6162C4.92658 12.4769 6.35045 12.3801 6.61764 12.5064Z" fill="#4f3b31"/>
<path d="M18.2243 12.9545C17.757 12.7708 17.6403 12.276 18.0039 11.9356C18.2126 11.7447 18.4673 11.6111 18.7431 11.548C19.0333 11.4852 19.3526 11.5228 19.6549 11.5566C19.9496 11.5896 20.2231 11.6982 20.3034 12.0359C20.3491 12.1849 20.3412 12.3451 20.2812 12.4889C20.2212 12.6327 20.1128 12.751 19.9748 12.8232C19.6711 12.9864 18.4572 13.0461 18.2243 12.9545Z" fill="#4f3b31"/>
<path d="M0.424774 9.5391C-0.635799 13.7075 0.292917 17.3848 3.18705 20.4701C3.26246 20.5498 3.3392 20.6295 3.41604 20.7064C4.97063 22.2609 6.90705 23.2208 8.44146 23.8888C9.10001 24.1764 12.479 24.5256 13.3933 24.3895C18.8266 23.5781 22.402 20.5136 23.6473 15.3868C23.8852 14.3825 24.0036 13.3537 24.0002 12.3217C24.006 9.8905 22.9823 7.06408 20.8713 4.94724C20.654 4.76754 20.4374 4.58139 20.228 4.40097C19.7739 4.01053 19.3043 3.60628 18.8132 3.26153C15.0613 0.620856 11.1632 0.606081 7.22731 2.00638C3.66376 3.27339 1.37531 5.80825 0.424774 9.5391ZM7.24247 3.25455C10.6959 1.81952 14.1609 1.56626 17.5404 3.71558C18.1583 4.10899 19.8057 5.44045 20.065 5.64044L20.0817 5.65272L20.0955 5.668C21.4139 7.06615 22.9236 9.62261 22.8903 12.2506C22.8793 13.3743 22.7272 14.4921 22.4376 15.5779C21.5792 18.6981 19.5268 20.9721 16.1632 22.5274C12.7439 24.1647 7.84017 22.5095 6.53546 21.6482C5.09334 20.6623 3.83151 19.4357 2.80512 18.0221C1.19541 15.7431 0.834273 12.4671 1.69916 9.47239C2.104 8.08965 2.81144 6.81434 3.77023 5.73889C4.72901 4.66344 5.91509 3.81482 7.24247 3.25455Z" fill="#4f3b31"/>
</g>
<defs>
<clipPath id="clip0_1_6663">
<rect width="24" height="24" fill="white" transform="translate(0 0.75)"/>
</clipPath>
</defs>
</svg>
