<svg width="24" height="24" viewBox="0 0 24 24" fill="none" xmlns="http://www.w3.org/2000/svg">
<g clip-path="url(#clip0_1_6685)">
<path d="M8.97506 3.21004C9.0084 2.59466 9.04126 1.98927 9.07924 1.28847C8.74729 1.28847 8.45368 1.29955 8.16121 1.28588C7.69862 1.26435 7.52689 1.13967 7.5042 0.839613C7.48013 0.521213 7.68333 0.321322 8.12623 0.258183C8.36041 0.229133 8.59603 0.21271 8.83202 0.208965C10.5888 0.149559 12.3458 0.0921355 14.1028 0.0366688C14.2094 0.0327408 14.3161 0.041647 14.4204 0.0632314C14.7965 0.143724 15.0096 0.383249 15.0063 0.708664C15.0048 0.868675 14.944 1.02267 14.8353 1.14184C14.7265 1.261 14.5772 1.33713 14.4154 1.35603C14.1234 1.40366 13.8234 1.40329 13.4828 1.42741V3.11125C15.3535 3.29303 16.932 4.16564 18.5241 5.2145C18.9091 4.90533 19.3171 4.60726 19.69 4.272C20.7707 3.30154 21.3672 3.37091 22.1571 4.45349C22.3595 4.69915 22.5788 4.93094 22.8135 5.14719C23.4197 5.77316 23.4353 6.2592 22.8397 6.90831C22.4393 7.34474 22.0145 7.75984 21.5889 8.19664C21.8695 8.69769 22.1531 9.18767 22.4212 9.68588C23.9498 12.5256 23.7309 16.7504 21.2562 19.5019C19.1957 21.7931 16.6671 23.1759 13.6366 23.7358C10.7631 24.2665 8.00652 23.85 5.34685 22.7193C3.49413 21.9316 2.22008 20.5392 1.52069 18.7323C0.113376 15.0965 0.345666 11.5193 2.21919 8.06732C2.93714 6.74462 4.05938 5.80268 5.29055 4.98115C6.00223 4.5139 6.74279 4.09054 7.50795 3.71348C7.95724 3.48849 8.46571 3.38001 8.97506 3.21004ZM2.55818 14.2091C2.55644 15.361 2.74297 16.5058 3.11065 17.5997C3.76567 19.5074 4.97314 20.8937 6.96914 21.5247C11.4526 22.9421 15.5296 22.2569 19.0623 19.1347C21.6891 16.8131 22.2272 13.3735 20.5063 10.3492C19.1301 7.93046 17.0545 6.30348 14.4076 5.38595C13.1882 4.96997 11.8955 4.80131 10.6078 4.89009C9.0716 4.98462 7.69939 5.56702 6.39901 6.32603C5.03588 7.10652 3.97619 8.3103 3.38707 9.74755C2.79875 11.1382 2.62224 12.5837 2.55818 14.2091ZM10.4623 1.38926C10.4957 1.9431 10.5277 2.47372 10.5595 3.00295H11.9841C12.0666 2.45982 12.1446 1.94692 12.2293 1.38926H10.4623ZM22.0094 6.01438L21.0231 4.93366L19.8296 6.17759L20.626 7.04454L22.0094 6.01438Z" fill="#4f3b31"/>
<path d="M12.4643 13.0284C13.3402 13.0513 14.1717 13.0688 15.0029 13.0975C15.259 13.097 15.5145 13.1242 15.7646 13.1786C15.9145 13.2064 16.0499 13.2843 16.1478 13.399C16.2458 13.5138 16.3002 13.6583 16.3019 13.8081C16.306 13.9681 16.2541 14.1246 16.1549 14.2516C16.0559 14.3786 15.9154 14.4684 15.757 14.5062C15.5318 14.5742 15.2967 14.6053 15.0612 14.5985C13.9051 14.5425 12.75 14.4656 11.5945 14.397C11.0863 14.3669 10.8406 14.1657 10.7843 13.6821C10.7651 13.4513 10.7709 13.2193 10.8017 12.9899C10.9472 11.5875 11.0977 10.1857 11.2531 8.78444C11.2814 8.55487 11.3243 8.32731 11.3817 8.10302C11.4479 7.8304 11.6181 7.6545 11.9191 7.64761C12.2576 7.63998 12.4293 7.84022 12.4865 8.13992C12.5352 8.36612 12.5604 8.59657 12.5617 8.82777C12.5366 10.0481 12.4976 11.2683 12.4647 12.4885C12.4608 12.6346 12.4643 12.7807 12.4643 13.0284Z" fill="#4f3b31"/>
</g>
<defs>
<clipPath id="clip0_1_6685">
<rect width="24" height="24" fill="white"/>
</clipPath>
</defs>
</svg>
