<svg width="24" height="24" viewBox="0 0 24 24" fill="none" xmlns="http://www.w3.org/2000/svg">
<g clip-path="url(#clip0_7_2898)">
<path d="M23.3155 7.85773C23.2435 7.56264 23.0948 7.33605 22.8969 7.21973C22.8218 7.17527 22.7385 7.14697 22.652 7.13659C22.5656 7.1262 22.478 7.13396 22.3947 7.15938C22.1267 7.23663 21.826 7.47628 21.9167 8.17938C21.9876 8.72963 22.0463 9.29182 22.1033 9.83489C22.1276 10.0667 22.1523 10.2983 22.1772 10.5301C22.0861 12.0717 21.9853 13.4616 21.6763 14.8456C21.2726 16.6534 20.4385 18.3575 19.1974 19.9102C18.1907 21.1697 16.9044 21.9502 15.2648 22.2962C13.9079 22.5726 12.516 22.6276 11.142 22.4593C10.025 22.3302 8.71548 22.1251 7.47133 21.5818C6.0309 20.9529 5.01138 20.2102 4.26264 19.2445C3.15479 17.8115 2.36289 16.1546 1.94026 14.3855C1.65414 13.2622 1.57789 12.0947 1.71545 10.9432C1.92624 9.24855 2.4968 7.58324 3.51089 5.70204C3.86786 5.03807 4.35028 4.45175 4.93073 3.9765C6.34348 2.81758 7.74267 2.02172 9.20816 1.5433C10.2503 1.20301 11.4006 1.09604 12.726 1.21639C13.6067 1.29636 14.4626 1.56247 15.2903 1.8199C15.4757 1.87754 15.6613 1.93516 15.8472 1.99096L15.9328 2.01725C16.0912 2.07178 16.2546 2.10994 16.4205 2.13111C16.5305 2.14093 16.7591 2.07908 16.8025 1.94716C16.8231 1.87177 16.8273 1.79272 16.8145 1.71555C16.8018 1.63838 16.7725 1.56497 16.7288 1.50047C16.6166 1.36056 16.4715 1.25139 16.3069 1.18295C15.7535 0.950394 15.2532 0.74349 14.7312 0.56752C13.7376 0.231249 12.6962 0.0625852 11.6487 0.0682535C9.96849 0.0824657 8.31986 0.531747 6.8594 1.37337C6.32006 1.67828 5.84341 1.96163 5.4022 2.23964C4.1034 3.05801 3.15959 4.01653 2.51685 5.16993C1.74545 6.55387 1.21258 7.82928 0.887578 9.06873C0.502313 10.5382 0.3639 11.684 0.438687 12.7836C0.568377 14.6868 1.16701 16.5713 2.26946 18.5446C2.66663 19.2733 3.15059 19.9499 3.71049 20.5592C4.88133 21.8118 6.36484 22.6979 8.24474 23.2678C9.69052 23.7077 11.1919 23.9314 12.7015 23.9318C13.3512 23.9316 14.0004 23.8906 14.6452 23.8092C17.1755 23.4901 19.1238 22.3801 20.6005 20.4156C21.7821 18.8436 22.5648 17.2705 22.9934 15.6068C23.4818 13.7099 23.6632 11.644 23.5481 9.29086C23.517 8.80657 23.4391 8.32657 23.3155 7.85773Z" fill="#4f3b31"/>
<path d="M13.7745 4.52979C13.8783 4.54074 13.9819 4.55186 14.0857 4.56168C14.1788 4.57043 14.4272 4.59399 14.5102 4.34935C14.5455 4.2572 14.5442 4.15483 14.5067 4.0636C14.4692 3.97239 14.3983 3.89936 14.3089 3.85979C14.1449 3.77575 13.9711 3.71273 13.7916 3.67219C12.9707 3.49708 12.1273 3.45782 11.294 3.55594C9.73952 3.74102 8.43435 4.14869 7.3038 4.80238C5.80181 5.67076 4.87263 6.7794 4.46315 8.19216C4.40047 8.40877 4.31617 8.62651 4.24164 8.81863C3.60006 10.4294 3.44014 12.1959 3.78177 13.8981C4.02317 15.1013 4.32103 16.0726 4.98997 16.9025C6.52593 18.808 8.27266 19.8831 10.33 20.1893C10.7735 20.2553 11.2292 20.2774 11.669 20.2987C11.8695 20.3084 12.0766 20.3185 12.2794 20.3326H12.2875C13.877 20.2993 15.4374 19.8945 16.8469 19.1495C17.1848 18.9789 17.4963 18.7589 17.771 18.4965C18.6395 17.6317 19.1869 16.8119 19.4933 15.9165C19.5551 15.736 19.6368 15.5567 19.7158 15.3832C19.74 15.3301 19.7643 15.2769 19.788 15.2236C20.4958 13.6347 20.4895 11.8977 19.7685 9.91325C19.7083 9.74639 19.614 9.59434 19.4919 9.46698C19.4134 9.37807 19.3128 9.3122 19.2005 9.27629C19.0882 9.24047 18.9684 9.23591 18.8539 9.26315C18.7447 9.29854 18.6471 9.36362 18.5718 9.45121C18.4964 9.5388 18.4462 9.64558 18.4266 9.76006C18.3783 9.96835 18.4141 10.2002 18.4456 10.4048L18.4528 10.4508C18.4895 10.6922 18.5341 10.9359 18.5771 11.1717C18.6502 11.5719 18.7258 11.9858 18.7645 12.3945C18.8355 13.0696 18.7461 13.752 18.5041 14.3851C18.2888 14.9553 18.045 15.5139 17.7736 16.059C17.325 16.9349 16.8338 17.5088 16.2276 17.8634C15.7527 18.1414 15.2167 18.339 14.6982 18.5301L14.4939 18.6057C13.5774 18.9466 12.5913 18.9473 11.632 18.9479H11.6247C10.1495 18.9479 9.02605 18.6177 8.08974 17.9092C7.93723 17.7937 7.77684 17.6856 7.62173 17.581C7.45002 17.4652 7.27249 17.3455 7.1077 17.2171C6.21439 16.5209 5.63073 15.7368 5.32345 14.8192C4.9617 13.7401 4.5831 12.3086 4.86721 10.8046C4.96064 10.3539 5.07675 9.90852 5.21512 9.46996C5.29925 9.18712 5.3861 8.89466 5.45942 8.6033C5.75909 7.4132 6.48545 6.4914 7.68016 5.78532C9.29174 4.83277 11.0935 4.39025 13.0305 4.46716C13.278 4.47705 13.5302 4.50386 13.7745 4.52979Z" fill="#4f3b31"/>
<path d="M9.58468 8.80721C9.97617 8.57957 10.3914 8.39689 10.8229 8.2626C11.2679 8.12841 11.7361 8.03766 12.1889 7.94989C12.3057 7.92721 12.4224 7.90461 12.5388 7.88122C12.687 7.85153 12.9111 7.80651 12.9157 7.54102C12.9193 7.33273 12.7827 7.19301 12.5508 7.16717C12.4289 7.15335 12.3062 7.14846 12.1836 7.15254C11.3603 7.1839 10.5322 7.37775 9.57776 7.76289C8.74641 8.08499 8.06917 8.71869 7.6863 9.53273C6.99653 10.9665 6.95568 12.5001 7.56523 14.0907C7.73685 14.5384 7.99504 15.1099 8.47238 15.5601C9.54188 16.5687 10.843 17.0799 12.34 17.0799C12.411 17.0799 12.4821 17.0819 12.5534 17.0841C12.6189 17.0863 12.6855 17.0886 12.7522 17.0886C12.832 17.0892 12.9118 17.0848 12.9911 17.0755C14.0343 16.945 14.851 16.5907 15.488 15.9923C16.684 14.869 17.2249 13.3646 17.0961 11.5209C17.0779 11.261 16.9517 11.0041 16.8404 10.7776C16.7398 10.5731 16.5099 10.4171 16.2805 10.5314C16.1252 10.6275 16.0117 10.7797 15.9628 10.9572C15.933 11.081 15.9227 11.2088 15.9326 11.3357C15.9341 11.3976 15.9356 11.4561 15.9326 11.5133C15.9249 11.6542 15.9214 11.7974 15.918 11.9361C15.9187 12.2546 15.8942 12.5728 15.845 12.8873C15.538 14.5404 14.6183 15.5111 13.1116 15.7726C12.0502 15.9565 11.0057 15.7563 10.0077 15.1769C9.6229 14.9536 9.23166 14.6896 8.97679 14.2733C8.23185 13.0564 8.04777 11.761 8.42957 10.4227C8.64512 9.66543 9.03419 9.12175 9.58468 8.80721Z" fill="#4f3b31"/>
<path d="M19.7293 3.18551C19.742 3.11754 19.7557 3.04957 19.7693 2.98169C19.8166 2.76942 19.8505 2.55433 19.8708 2.33771C19.899 1.9545 19.7238 1.81838 19.4319 1.72291C19.3195 1.68273 19.1985 1.67356 19.0814 1.69631C18.9643 1.71905 18.8553 1.77291 18.7655 1.85237C17.9387 2.55196 17.105 3.26094 16.2874 3.95948C15.9934 4.21096 15.8897 4.53284 15.9632 4.97238C16.0102 5.25495 16.0394 5.54672 16.0676 5.82894C16.0891 6.04345 16.1114 6.26513 16.1413 6.48288C16.1647 6.65394 16.1171 6.76992 15.9656 6.91068L15.8979 6.97349C15.4798 7.36178 15.0476 7.76322 14.6414 8.1784C13.9181 8.91763 13.1888 9.67494 12.4829 10.4073C12.1478 10.7553 11.8123 11.1031 11.4766 11.4508C11.2366 11.6991 11.2871 11.8903 11.3718 12.007C11.4031 12.0539 11.4452 12.0924 11.4945 12.1191C11.5438 12.1457 11.5988 12.1597 11.6546 12.1599C11.7688 12.1543 11.8785 12.1131 11.9687 12.0419C12.1259 11.9238 12.2748 11.7946 12.4143 11.6556C13.2228 10.8825 14.0308 10.1087 14.8382 9.33439L16.1507 8.07678C16.2829 7.95038 16.3772 7.88935 16.545 7.89636C17.261 7.91808 17.9888 7.91755 18.6928 7.91676C18.8926 7.91641 19.0924 7.91641 19.2923 7.91676H19.294C19.4172 7.92 19.5394 7.895 19.6517 7.84363C19.764 7.79225 19.8634 7.71584 19.9424 7.62009C20.513 6.96027 21.1037 6.29842 21.6568 5.68143C21.9285 5.37845 22.1636 5.06268 22.0583 4.53267C21.9632 4.05617 21.8994 3.84533 21.3703 3.84235C21.0941 3.84192 20.8139 3.85672 20.5431 3.87231C20.3898 3.88107 20.2365 3.88985 20.0832 3.89563C19.9594 3.90018 19.8366 3.8992 19.6941 3.89797L19.5858 3.8971C19.597 3.84227 19.6081 3.7885 19.619 3.73577C19.6584 3.54465 19.6954 3.36533 19.7293 3.18551ZM21.0074 4.93733L21.0289 4.93891L19.5476 6.8378H17.062C17.0548 6.8124 17.047 6.78658 17.0391 6.76039C17.0029 6.65666 16.9797 6.54874 16.9699 6.43917C16.9589 6.14924 16.9595 5.8531 16.9599 5.56676C16.9599 5.395 16.9605 5.22325 16.9584 5.05166C16.9563 4.88225 16.9807 4.74693 17.1059 4.63744C17.574 4.22804 18.0405 3.81644 18.5355 3.37953L18.9536 3.01095C18.9493 3.07638 18.9458 3.12394 18.9388 3.16975C18.9188 3.29965 18.8964 3.4292 18.874 3.55875C18.8316 3.80532 18.7876 4.0603 18.7609 4.3144C18.7374 4.53846 18.7684 4.69103 18.8584 4.79395C18.9484 4.89686 19.0906 4.94583 19.3087 4.94986C19.6272 4.95599 19.9508 4.94679 20.2634 4.93812C20.433 4.93348 20.6025 4.92884 20.772 4.92638C20.8415 4.92621 20.9107 4.9305 21.0074 4.93733Z" fill="#4f3b31"/>
</g>
<defs>
<clipPath id="clip0_7_2898">
<rect width="24" height="24" fill="white"/>
</clipPath>
</defs>
</svg>
