<svg width="24" height="25" viewBox="0 0 24 25" fill="#e1823a" xmlns="http://www.w3.org/2000/svg">
<g clip-path="url(#clip0_1_6599)">
<path d="M20.1096 4.88462C20.1652 4.83501 20.2095 4.7741 20.2396 4.70598C20.2697 4.63785 20.2848 4.56407 20.2841 4.4896C20.2834 4.41512 20.2667 4.34167 20.2353 4.27415C20.2039 4.20663 20.1584 4.14661 20.1018 4.0981C20.0423 4.04704 19.9832 3.99624 19.9246 3.94572C19.4773 3.56113 19.0149 3.16292 18.5311 2.82324C14.8355 0.222269 10.9957 0.207637 7.11889 1.58704C3.60878 2.83505 1.35465 5.33188 0.418162 9.00678C-0.626505 13.1126 0.288289 16.7347 3.13902 19.7739C3.2132 19.8524 3.28888 19.9309 3.36447 20.006C4.89585 21.5373 6.80323 22.4828 8.31453 23.1407C8.96321 23.424 12.2916 23.7681 13.1921 23.6338C18.5439 22.8347 22.0658 19.8161 23.2925 14.7662C23.5267 13.777 23.6433 12.7636 23.6399 11.7471C23.6346 10.6796 23.4551 9.62001 23.1084 8.61029C23.0831 8.53476 23.0415 8.46574 22.9865 8.40818C22.9315 8.35062 22.8644 8.30593 22.7901 8.27732C22.7158 8.24871 22.636 8.23688 22.5566 8.24268C22.4772 8.24848 22.4 8.27177 22.3306 8.31087L22.3161 8.31915C22.2059 8.38228 22.1213 8.48215 22.0773 8.60131C22.0333 8.72047 22.0325 8.85131 22.0752 8.97096C22.3882 9.83886 22.5477 10.7546 22.5468 11.6772C22.536 12.784 22.3861 13.8851 22.1008 14.9546C21.2552 18.0279 19.2337 20.2678 15.9206 21.7999C12.5524 23.4125 7.72226 21.7823 6.43711 20.9338C5.01665 19.9627 3.77374 18.7545 2.76271 17.3622C1.17714 15.1173 0.821419 11.8905 1.67344 8.94058C2.07216 7.57856 2.76898 6.32233 3.71339 5.263C4.6578 4.20367 5.82611 3.36779 7.13362 2.81597C10.5351 1.40236 13.9482 1.153 17.277 3.27009C17.7234 3.55426 18.8614 4.44786 19.4366 4.9042C19.5331 4.98075 19.6536 5.02072 19.7767 5.01702C19.8998 5.01333 20.0179 4.96682 20.1096 4.88462Z" />
<path d="M10.4975 15.3979C10.7255 15.1812 10.8507 15.0716 10.9654 14.9518C14.6408 11.1119 18.6659 7.6549 22.7149 4.22461C22.8679 4.09504 23.0245 3.92974 23.2057 3.88332C23.4241 3.82752 23.7802 3.8917 23.8778 4.01028C23.9419 4.0979 23.9824 4.20053 23.9955 4.30833C24.0085 4.41612 23.9936 4.52547 23.9523 4.62585C23.8571 4.87542 23.6253 5.08915 23.415 5.27595C22.1599 6.39115 20.8698 7.46791 19.6369 8.60613C17.0597 10.9863 14.4989 13.3842 11.9545 15.7997C10.8396 16.8559 10.4105 16.8987 9.38463 15.7701C8.70931 15.0269 6.67125 12.522 6.04709 11.7328C5.95891 11.6101 5.88036 11.4808 5.81216 11.3459C5.67138 11.0963 5.57935 10.8212 5.85919 10.6276C6.17091 10.4121 6.39212 10.637 6.57689 10.8712C6.76388 11.1084 6.92333 11.3689 7.12354 11.5936C7.74508 12.291 9.82594 14.6623 10.4975 15.3979Z" />
</g>
<defs>
<clipPath id="clip0_1_6599">
<rect width="24" height="24" fill="white" transform="translate(0 0.169434)"/>
</clipPath>
</defs>
</svg>
