<svg width="36" height="26" viewBox="0 0 36 26" fill="none" xmlns="http://www.w3.org/2000/svg">
<path d="M11.9589 0.61084L13.4384 3.81632C10.3151 4.72043 7.89041 5.9944 6.16438 7.63824C4.52055 9.28207 3.69863 11.4191 3.69863 14.0492C3.69863 16.6793 4.19178 18.5697 5.17808 19.7204C5.34247 18.4876 5.87671 17.5013 6.78082 16.7615C7.68493 15.9396 8.75343 15.5286 9.9863 15.5286C11.3836 15.5286 12.5753 16.0218 13.5616 17.0081C14.5479 17.9122 15.0411 19.0629 15.0411 20.4602C15.0411 21.8574 14.5069 23.0081 13.4384 23.9122C12.4521 24.8163 11.2603 25.3506 9.86302 25.515C7.23288 25.8437 4.93151 24.9807 2.9589 22.9259C0.986301 20.7889 0 17.83 0 14.0492C0 10.5149 1.06849 7.63824 3.20548 5.41906C5.42466 3.19988 8.34247 1.59714 11.9589 0.61084ZM32.9178 0.61084L34.3973 3.81632C31.274 4.72043 28.8493 5.9944 27.1233 7.63824C25.4795 9.28207 24.6575 11.4191 24.6575 14.0492C24.6575 16.6793 25.1507 18.5697 26.137 19.7204C26.3014 18.4876 26.8356 17.5013 27.7397 16.7615C28.6438 15.9396 29.7123 15.5286 30.9452 15.5286C32.3425 15.5286 33.5342 16.0218 34.5205 17.0081C35.5069 17.9122 36 19.0629 36 20.4602C36 21.8574 35.4658 23.0081 34.3973 23.9122C33.411 24.8163 32.2192 25.3506 30.8219 25.515C28.1918 25.8437 25.8904 24.9807 23.9178 22.9259C21.9452 20.7889 20.9589 17.83 20.9589 14.0492C20.9589 10.5149 22.0274 7.63824 24.1644 5.41906C26.3836 3.19988 29.3014 1.59714 32.9178 0.61084Z" fill="#E79D64"/>
</svg>
